<?xml version="1.0" encoding="UTF-8"?>
<!DOCTYPE svg PUBLIC "-//W3C//DTD SVG 1.1//EN" "http://www.w3.org/Graphics/SVG/1.1/DTD/svg11.dtd">
<svg xmlns="http://www.w3.org/2000/svg" version="1.1" width="276px" height="182px" style="shape-rendering:geometricPrecision; text-rendering:geometricPrecision; image-rendering:optimizeQuality; fill-rule:evenodd; clip-rule:evenodd" xmlns:xlink="http://www.w3.org/1999/xlink">
<g><path style="opacity:1" fill="#fcfcfc" d="M -0.5,-0.5 C 91.5,-0.5 183.5,-0.5 275.5,-0.5C 275.5,60.1667 275.5,120.833 275.5,181.5C 183.5,181.5 91.5,181.5 -0.5,181.5C -0.5,120.833 -0.5,60.1667 -0.5,-0.5 Z"/></g>
<g><path style="opacity:1" fill="#141414" d="M 143.5,34.5 C 139.833,35.8333 136.167,35.8333 132.5,34.5C 134.099,32.3962 135.932,30.3962 138,28.5C 140.068,30.3962 141.901,32.3962 143.5,34.5 Z"/></g>
<g><path style="opacity:1" fill="#c8c8c8" d="M 132.5,34.5 C 136.167,35.8333 139.833,35.8333 143.5,34.5C 173.931,35.1593 204.264,35.826 234.5,36.5C 204.093,36.1749 173.76,36.5082 143.5,37.5C 139.833,36.1667 136.167,36.1667 132.5,37.5C 102.24,36.5082 71.9069,36.1749 41.5,36.5C 71.7356,35.826 102.069,35.1593 132.5,34.5 Z"/></g>
<g><path style="opacity:1" fill="#030303" d="M 41.5,36.5 C 71.9069,36.1749 102.24,36.5082 132.5,37.5C 134.167,39.8333 136.167,41.8333 138.5,43.5C 138.169,66.3395 138.503,89.0061 139.5,111.5C 155.658,112.496 171.991,112.83 188.5,112.5C 188.5,89.8333 188.5,67.1667 188.5,44.5C 172.167,43.8333 155.833,43.1667 139.5,42.5C 140.803,40.8577 142.136,39.1911 143.5,37.5C 173.76,36.5082 204.093,36.1749 234.5,36.5C 238.972,38.7769 240.805,42.4436 240,47.5C 239.578,45.5743 238.411,44.5743 236.5,44.5C 221.009,43.5037 205.342,43.1704 189.5,43.5C 188.844,66.8576 189.51,89.8576 191.5,112.5C 206.504,112.667 221.504,112.5 236.5,112C 238.333,111.5 239.5,110.333 240,108.5C 240.442,112.506 239.276,116.006 236.5,119C 170.833,119.667 105.167,119.667 39.5,119C 36.8673,115.962 35.7006,112.462 36,108.5C 36.4224,110.426 37.5891,111.426 39.5,111.5C 54.9911,112.496 70.6578,112.83 86.5,112.5C 86.8308,89.3273 86.4975,66.3273 85.5,43.5C 70.163,43.3334 54.8297,43.5001 39.5,44C 37.6667,44.5 36.5,45.6667 36,47.5C 35.8301,45.1546 36.1635,42.8212 37,40.5C 37.7475,38.249 39.2475,36.9156 41.5,36.5 Z"/></g>
<g><path style="opacity:1" fill="#f8f8f8" d="M 143.5,37.5 C 142.136,39.1911 140.803,40.8577 139.5,42.5C 138.833,42.5 138.5,42.8333 138.5,43.5C 136.167,41.8333 134.167,39.8333 132.5,37.5C 136.167,36.1667 139.833,36.1667 143.5,37.5 Z"/></g>
<g><path style="opacity:1" fill="#f4f4f3" d="M 87.5,43.5 C 103.837,43.3334 120.17,43.5001 136.5,44C 137.162,55.2595 137.495,66.5928 137.5,78C 137.495,89.4072 137.162,100.741 136.5,112C 120.17,112.5 103.837,112.667 87.5,112.5C 87.5,89.5 87.5,66.5 87.5,43.5 Z"/></g>
<g><path style="opacity:1" fill="#f4f4f4" d="M 188.5,44.5 C 188.5,67.1667 188.5,89.8333 188.5,112.5C 171.991,112.83 155.658,112.496 139.5,111.5C 139.5,89.1667 139.5,66.8333 139.5,44.5C 155.833,44.5 172.167,44.5 188.5,44.5 Z"/></g>
<g><path style="opacity:1" fill="#070707" d="M 67.5,70.5 C 67.56,71.0431 67.8933,71.3764 68.5,71.5C 69.4975,63.8622 69.8308,56.1955 69.5,48.5C 72.5,48.5 75.5,48.5 78.5,48.5C 78.5,62.5 78.5,76.5 78.5,90.5C 75.1016,90.8204 71.7683,90.487 68.5,89.5C 64.1552,82.1391 59.8218,74.8057 55.5,67.5C 55.44,66.9569 55.1067,66.6236 54.5,66.5C 53.1812,73.656 53.1812,80.656 54.5,87.5C 54.5,88.5 54.5,89.5 54.5,90.5C 51.1667,90.5 47.8333,90.5 44.5,90.5C 44.5,76.5 44.5,62.5 44.5,48.5C 47.8499,48.335 51.1832,48.5017 54.5,49C 58.9702,56.1114 63.3036,63.278 67.5,70.5 Z"/></g>
<g><path style="opacity:1" fill="#080808" d="M 182.5,61.5 C 180.012,63.3878 177.012,64.0545 173.5,63.5C 171.328,58.0479 167.328,55.8812 161.5,57C 153.998,62.7419 152.498,69.9086 157,78.5C 159.707,82.0349 163.207,83.2016 167.5,82C 170.079,80.9243 171.746,79.091 172.5,76.5C 173.043,76.44 173.376,76.1067 173.5,75.5C 170.572,74.5159 167.572,74.1826 164.5,74.5C 164.5,72.5 164.5,70.5 164.5,68.5C 170.833,68.5 177.167,68.5 183.5,68.5C 184.411,80.0457 179.411,87.379 168.5,90.5C 164.5,90.5 160.5,90.5 156.5,90.5C 145.375,83.9933 141.541,74.3266 145,61.5C 150.061,50.5536 158.561,46.387 170.5,49C 177.083,50.7719 181.083,54.9386 182.5,61.5 Z"/></g>
<g><path style="opacity:1" fill="#423b33" d="M 97.5,48.5 C 107.522,48.1681 117.522,48.5015 127.5,49.5C 122.5,49.8333 117.5,50.1667 112.5,50.5C 107.119,50.4942 102.119,49.8275 97.5,48.5 Z"/></g>
<g><path style="opacity:1" fill="#bcd4fb" d="M 202.5,48.5 C 206.783,49.8266 211.449,50.4933 216.5,50.5C 221.551,50.4933 226.217,49.8266 230.5,48.5C 231.404,49.209 231.737,50.209 231.5,51.5C 221.5,51.5 211.5,51.5 201.5,51.5C 201.263,50.209 201.596,49.209 202.5,48.5 Z"/></g>
<g><path style="opacity:1" fill="#7b96d0" d="M 202.5,48.5 C 211.833,48.5 221.167,48.5 230.5,48.5C 226.217,49.8266 221.551,50.4933 216.5,50.5C 211.449,50.4933 206.783,49.8266 202.5,48.5 Z"/></g>
<g><path style="opacity:1" fill="#778ce4" d="M 201.5,51.5 C 211.5,51.5 221.5,51.5 231.5,51.5C 226.881,52.8275 221.881,53.4942 216.5,53.5C 211.119,53.4942 206.119,52.8275 201.5,51.5 Z"/></g>
<g><path style="opacity:1" fill="#ddad3a" d="M 96.5,51.5 C 107.221,50.8581 117.554,51.5247 127.5,53.5C 116.779,54.1419 106.446,53.4753 96.5,51.5 Z"/></g>
<g><path style="opacity:1" fill="#fef2a6" d="M 96.5,51.5 C 106.446,53.4753 116.779,54.1419 127.5,53.5C 127.5,53.8333 127.5,54.1667 127.5,54.5C 116.833,54.5 106.167,54.5 95.5,54.5C 95.2627,53.209 95.596,52.209 96.5,51.5 Z"/></g>
<g><path style="opacity:1" fill="#b2b2b2" d="M 69.5,48.5 C 69.8308,56.1955 69.4975,63.8622 68.5,71.5C 67.8933,71.3764 67.56,71.0431 67.5,70.5C 68.1667,63.1667 68.8333,55.8333 69.5,48.5 Z"/></g>
<g><path style="opacity:1" fill="#d6b976" d="M 95.5,54.5 C 106.167,54.5 116.833,54.5 127.5,54.5C 129.048,54.8212 129.715,55.8212 129.5,57.5C 126.167,57.5 122.833,57.5 119.5,57.5C 114.539,56.6475 109.539,56.6475 104.5,57.5C 101.5,57.5 98.5,57.5 95.5,57.5C 95.5,56.5 95.5,55.5 95.5,54.5 Z"/></g>
<g><path style="opacity:1" fill="#26292b" d="M 199.5,54.5 C 210.853,54.1678 222.186,54.5012 233.5,55.5C 227.833,55.8333 222.167,56.1667 216.5,56.5C 210.458,56.4955 204.792,55.8288 199.5,54.5 Z"/></g>
<g><path style="opacity:1" fill="#434b38" d="M 199.5,57.5 C 202.572,57.1826 205.572,57.5159 208.5,58.5C 207,58.8333 205.5,59.1667 204,59.5C 202.014,59.4313 200.514,58.7647 199.5,57.5 Z"/></g>
<g><path style="opacity:1" fill="#3d4e37" d="M 95.5,57.5 C 98.5,57.5 101.5,57.5 104.5,57.5C 103.306,58.7773 101.64,59.4439 99.5,59.5C 97.8333,59.1667 96.1667,58.8333 94.5,58.5C 94.6236,57.8933 94.9569,57.56 95.5,57.5 Z"/></g>
<g><path style="opacity:1" fill="#3b4734" d="M 119.5,57.5 C 122.833,57.5 126.167,57.5 129.5,57.5C 128.306,58.7773 126.64,59.4439 124.5,59.5C 122.36,59.4439 120.694,58.7773 119.5,57.5 Z"/></g>
<g><path style="opacity:1" fill="#4c454e" d="M 223.5,57.5 C 227.226,57.1774 230.893,57.5108 234.5,58.5C 232.667,58.8333 230.833,59.1667 229,59.5C 226.705,59.4535 224.871,58.7868 223.5,57.5 Z"/></g>
<g><path style="opacity:1" fill="#444141" d="M 198.5,60.5 C 201.898,60.1796 205.232,60.513 208.5,61.5C 204.878,62.6586 201.211,62.8253 197.5,62C 198.056,61.6174 198.389,61.1174 198.5,60.5 Z"/></g>
<g><path style="opacity:1" fill="#232225" d="M 93.5,60.5 C 96.8984,60.1796 100.232,60.513 103.5,61.5C 101.833,61.8333 100.167,62.1667 98.5,62.5C 96.3603,62.4439 94.6936,61.7773 93.5,60.5 Z"/></g>
<g><path style="opacity:1" fill="#252325" d="M 120.5,60.5 C 124.375,60.0845 128.042,60.5845 131.5,62C 127.5,62.6667 123.5,62.6667 119.5,62C 120.056,61.6174 120.389,61.1174 120.5,60.5 Z"/></g>
<g><path style="opacity:1" fill="#212223" d="M 224.5,60.5 C 228.226,60.1774 231.893,60.5108 235.5,61.5C 233.667,61.8333 231.833,62.1667 230,62.5C 227.705,62.4535 225.871,61.7868 224.5,60.5 Z"/></g>
<g><path style="opacity:1" fill="#5c5c5c" d="M 182.5,61.5 C 183.404,62.209 183.737,63.209 183.5,64.5C 179.958,64.8128 176.625,64.4794 173.5,63.5C 177.012,64.0545 180.012,63.3878 182.5,61.5 Z"/></g>
<g><path style="opacity:1" fill="#3b3b3b" d="M 92.5,63.5 C 96.226,63.1774 99.8927,63.5108 103.5,64.5C 101.667,64.8333 99.8333,65.1667 98,65.5C 95.7047,65.4535 93.8714,64.7868 92.5,63.5 Z"/></g>
<g><path style="opacity:1" fill="#363636" d="M 120.5,63.5 C 124.226,63.1774 127.893,63.5108 131.5,64.5C 129.667,64.8333 127.833,65.1667 126,65.5C 123.705,65.4535 121.871,64.7868 120.5,63.5 Z"/></g>
<g><path style="opacity:1" fill="#373737" d="M 197.5,63.5 C 200.898,63.1796 204.232,63.513 207.5,64.5C 205.833,64.8333 204.167,65.1667 202.5,65.5C 200.36,65.4439 198.694,64.7773 197.5,63.5 Z"/></g>
<g><path style="opacity:1" fill="#373737" d="M 225.5,63.5 C 229.226,63.1774 232.893,63.5108 236.5,64.5C 234.667,64.8333 232.833,65.1667 231,65.5C 228.705,65.4535 226.871,64.7868 225.5,63.5 Z"/></g>
<g><path style="opacity:1" fill="#090909" d="M 106.5,65.5 C 110.555,65.1758 114.555,65.5091 118.5,66.5C 123.243,79.7284 127.576,93.0618 131.5,106.5C 127.833,106.5 124.167,106.5 120.5,106.5C 119.908,103.873 119.575,101.206 119.5,98.5C 114.786,98.1734 110.12,98.5067 105.5,99.5C 104.423,101.729 103.756,104.063 103.5,106.5C 99.8183,106.665 96.1516,106.499 92.5,106C 97.2726,92.5148 101.939,79.0148 106.5,65.5 Z"/></g>
<g><path style="opacity:1" fill="#090909" d="M 210.5,65.5 C 214.555,65.1758 218.555,65.5091 222.5,66.5C 227.015,79.5615 231.681,92.5615 236.5,105.5C 232.833,106.833 229.167,106.833 225.5,105.5C 224.833,103.5 224.167,101.5 223.5,99.5C 218.833,98.1667 214.167,98.1667 209.5,99.5C 208.423,101.729 207.756,104.063 207.5,106.5C 204.167,106.5 200.833,106.5 197.5,106.5C 201.546,92.7416 205.879,79.0749 210.5,65.5 Z"/></g>
<g><path style="opacity:1" fill="#acacab" d="M 139.5,42.5 C 155.833,43.1667 172.167,43.8333 188.5,44.5C 172.167,44.5 155.833,44.5 139.5,44.5C 139.5,66.8333 139.5,89.1667 139.5,111.5C 138.503,89.0061 138.169,66.3395 138.5,43.5C 138.5,42.8333 138.833,42.5 139.5,42.5 Z"/></g>
<g><path style="opacity:1" fill="#434343" d="M 55.5,67.5 C 54.5093,73.979 54.176,80.6457 54.5,87.5C 53.1812,80.656 53.1812,73.656 54.5,66.5C 55.1067,66.6236 55.44,66.9569 55.5,67.5 Z"/></g>
<g><path style="opacity:1" fill="#676767" d="M 164.5,74.5 C 167.572,74.1826 170.572,74.5159 173.5,75.5C 173.376,76.1067 173.043,76.44 172.5,76.5C 169.833,75.8333 167.167,75.1667 164.5,74.5 Z"/></g>
<g><path style="opacity:1" fill="#848484" d="M 236.5,44.5 C 221.167,44.5 205.833,44.5 190.5,44.5C 190.178,67.2417 190.511,89.9084 191.5,112.5C 189.51,89.8576 188.844,66.8576 189.5,43.5C 205.342,43.1704 221.009,43.5037 236.5,44.5 Z"/></g>
<g><path style="opacity:1" fill="#eeeeee" d="M 111.5,77.5 C 114.013,81.3778 115.346,85.7112 115.5,90.5C 113.167,90.5 110.833,90.5 108.5,90.5C 108.717,85.9672 109.717,81.6339 111.5,77.5 Z"/></g>
<g><path style="opacity:1" fill="#ececec" d="M 215.5,77.5 C 217.76,81.1441 219.426,85.1441 220.5,89.5C 217.914,90.48 215.247,90.8134 212.5,90.5C 212.882,86.0223 213.882,81.6889 215.5,77.5 Z"/></g>
<g><path style="opacity:1" fill="#9ab885" d="M 156.5,90.5 C 160.5,90.5 164.5,90.5 168.5,90.5C 169.802,92.0276 171.469,93.0276 173.5,93.5C 167.167,94.8333 160.833,94.8333 154.5,93.5C 155.551,92.7777 156.218,91.7777 156.5,90.5 Z"/></g>
<g><path style="opacity:1" fill="#282828" d="M 44.5,92.5 C 48.226,92.1774 51.8927,92.5108 55.5,93.5C 53.6667,93.8333 51.8333,94.1667 50,94.5C 47.7047,94.4535 45.8714,93.7868 44.5,92.5 Z"/></g>
<g><path style="opacity:1" fill="#272727" d="M 69.5,92.5 C 73.0479,92.0949 76.3812,92.5949 79.5,94C 77.8333,94.1667 76.1667,94.3333 74.5,94.5C 72.3603,94.4439 70.6936,93.7773 69.5,92.5 Z"/></g>
<g><path style="opacity:1" fill="#c4f2a6" d="M 154.5,93.5 C 160.833,94.8333 167.167,94.8333 173.5,93.5C 174.833,93.5 175.5,94.1667 175.5,95.5C 167.133,95.2953 158.8,95.6287 150.5,96.5C 151.795,95.5116 153.128,94.5116 154.5,93.5 Z"/></g>
<g><path style="opacity:1" fill="#b94756" d="M 56.5,96.5 C 52.7016,97.4834 48.7016,97.8168 44.5,97.5C 46.0478,96.2057 48.0478,95.5391 50.5,95.5C 52.6965,95.5046 54.6965,95.838 56.5,96.5 Z"/></g>
<g><path style="opacity:1" fill="#ba4b54" d="M 78.5,97.5 C 75.2869,97.81 72.2869,97.4767 69.5,96.5C 70.7933,95.8418 72.2933,95.5085 74,95.5C 75.9855,95.5687 77.4855,96.2353 78.5,97.5 Z"/></g>
<g><path style="opacity:1" fill="#82c14a" d="M 175.5,95.5 C 175.5,95.8333 175.5,96.1667 175.5,96.5C 167.167,97.8333 158.833,97.8333 150.5,96.5C 158.8,95.6287 167.133,95.2953 175.5,95.5 Z"/></g>
<g><path style="opacity:1" fill="#748b68" d="M 150.5,96.5 C 158.833,97.8333 167.167,97.8333 175.5,96.5C 178.598,96.4125 178.932,96.9125 176.5,98C 177.938,98.2189 179.271,98.7189 180.5,99.5C 169.515,100.666 158.515,100.832 147.5,100C 148.636,98.8549 149.636,97.6883 150.5,96.5 Z"/></g>
<g><path style="opacity:1" fill="#bc6f79" d="M 56.5,96.5 C 57.4013,97.2905 58.0679,98.2905 58.5,99.5C 54.3656,100.485 50.0323,100.818 45.5,100.5C 44.596,99.791 44.2627,98.791 44.5,97.5C 48.7016,97.8168 52.7016,97.4834 56.5,96.5 Z"/></g>
<g><path style="opacity:1" fill="#b67377" d="M 69.5,96.5 C 72.2869,97.4767 75.2869,97.81 78.5,97.5C 78.5,98.5 78.5,99.5 78.5,100.5C 75.4281,100.817 72.4281,100.484 69.5,99.5C 68.3473,98.3132 68.3473,97.3132 69.5,96.5 Z"/></g>
<g><path style="opacity:1" fill="#fccade" d="M 58.5,99.5 C 59.3382,99.8417 59.6716,100.508 59.5,101.5C 54.8333,101.5 50.1667,101.5 45.5,101.5C 45.5,101.167 45.5,100.833 45.5,100.5C 50.0323,100.818 54.3656,100.485 58.5,99.5 Z"/></g>
<g><path style="opacity:1" fill="#443e44" d="M 145.5,101.5 C 149.884,101.174 154.217,101.508 158.5,102.5C 156.333,102.833 154.167,103.167 152,103.5C 149.39,103.467 147.223,102.8 145.5,101.5 Z"/></g>
<g><path style="opacity:1" fill="#262021" d="M 45.5,101.5 C 50.1667,101.5 54.8333,101.5 59.5,101.5C 60.1667,101.5 60.5,101.833 60.5,102.5C 55.3595,103.488 50.0262,103.821 44.5,103.5C 44.3284,102.508 44.6618,101.842 45.5,101.5 Z"/></g>
<g><path style="opacity:1" fill="#222320" d="M 78.5,103.5 C 75.5,103.5 72.5,103.5 69.5,103.5C 70.5145,102.235 72.0145,101.569 74,101.5C 75.9855,101.569 77.4855,102.235 78.5,103.5 Z"/></g>
<g><path style="opacity:1" fill="#292629" d="M 182.5,103.5 C 178.833,103.5 175.167,103.5 171.5,103.5C 170.957,103.44 170.624,103.107 170.5,102.5C 174.122,101.341 177.789,101.175 181.5,102C 182.056,102.383 182.389,102.883 182.5,103.5 Z"/></g>
<g><path style="opacity:1" fill="#877c80" d="M 69.5,103.5 C 72.5,103.5 75.5,103.5 78.5,103.5C 78.4142,104.496 78.7476,105.329 79.5,106C 76.1832,106.498 72.8499,106.665 69.5,106.5C 69.5,105.5 69.5,104.5 69.5,103.5 Z"/></g>
<g><path style="opacity:1" fill="#8d8687" d="M 60.5,102.5 C 61.3909,103.261 62.0576,104.261 62.5,105.5C 56.5368,106.496 50.5368,106.829 44.5,106.5C 44.5,105.5 44.5,104.5 44.5,103.5C 50.0262,103.821 55.3595,103.488 60.5,102.5 Z"/></g>
<g><path style="opacity:1" fill="#8c878a" d="M 171.5,103.5 C 175.167,103.5 178.833,103.5 182.5,103.5C 182.414,104.496 182.748,105.329 183.5,106C 179.789,106.825 176.122,106.659 172.5,105.5C 172.137,104.817 171.804,104.15 171.5,103.5 Z"/></g>
<g><path style="opacity:1" fill="#9a9a9a" d="M 85.5,43.5 C 86.4975,66.3273 86.8308,89.3273 86.5,112.5C 70.6578,112.83 54.9911,112.496 39.5,111.5C 54.8333,111.5 70.1667,111.5 85.5,111.5C 85.5,88.8333 85.5,66.1667 85.5,43.5 Z"/></g>
<g><path style="opacity:1" fill="#131313" d="M 51.5,127.5 C 57.4955,127.183 61.1621,129.849 62.5,135.5C 59.4503,136.077 57.4503,134.91 56.5,132C 53.975,131.104 51.8083,131.604 50,133.5C 48.9963,136.993 49.4963,140.159 51.5,143C 53.9563,143.946 55.9563,143.446 57.5,141.5C 56.675,140.614 55.675,140.281 54.5,140.5C 54.5,139.5 54.5,138.5 54.5,137.5C 57.1667,137.5 59.8333,137.5 62.5,137.5C 62.2347,145.982 57.9013,149.149 49.5,147C 42.2687,139.481 42.9353,132.981 51.5,127.5 Z"/></g>
<g><path style="opacity:1" fill="#131313" d="M 92.5,128.5 C 94.7925,128.244 96.9592,128.577 99,129.5C 101.143,135.428 102.977,141.428 104.5,147.5C 102.833,147.5 101.167,147.5 99.5,147.5C 99.5,146.167 99.5,144.833 99.5,143.5C 97.1432,143.337 94.8098,143.503 92.5,144C 91.6634,145.011 91.33,146.178 91.5,147.5C 89.712,147.785 88.0453,147.452 86.5,146.5C 89.1046,140.686 91.1046,134.686 92.5,128.5 Z"/></g>
<g><path style="opacity:1" fill="#0c0c0c" d="M 176.5,128.5 C 180.833,128.5 185.167,128.5 189.5,128.5C 189.5,129.5 189.5,130.5 189.5,131.5C 186.813,131.336 184.146,131.503 181.5,132C 180.663,133.011 180.33,134.178 180.5,135.5C 183.5,135.5 186.5,135.5 189.5,135.5C 189.5,136.833 189.5,138.167 189.5,139.5C 186.5,139.5 183.5,139.5 180.5,139.5C 180.5,140.833 180.5,142.167 180.5,143.5C 183.833,143.5 187.167,143.5 190.5,143.5C 190.5,144.833 190.5,146.167 190.5,147.5C 185.833,147.5 181.167,147.5 176.5,147.5C 176.5,141.167 176.5,134.833 176.5,128.5 Z"/></g>
<g><path style="opacity:1" fill="#3f3f3f" d="M 142.5,128.5 C 144.265,127.539 146.265,127.205 148.5,127.5C 148.824,134.354 148.491,141.021 147.5,147.5C 147.5,141.167 147.5,134.833 147.5,128.5C 145.833,128.5 144.167,128.5 142.5,128.5 Z"/></g>
<g><path style="opacity:1" fill="#ececec" d="M 94.5,134.5 C 96.1852,135.184 97.1852,136.517 97.5,138.5C 96.675,139.386 95.675,139.719 94.5,139.5C 94.5,137.833 94.5,136.167 94.5,134.5 Z"/></g>
<g><path style="opacity:1" fill="#121212" d="M 225.5,127.5 C 230.484,127.157 234.15,129.157 236.5,133.5C 235.667,133.833 234.833,134.167 234,134.5C 231.816,134.115 229.982,133.115 228.5,131.5C 225.815,131.708 225.149,132.875 226.5,135C 230.076,135.19 233.242,136.357 236,138.5C 237.269,144.624 234.769,147.624 228.5,147.5C 224.838,147.518 222.172,145.851 220.5,142.5C 221.333,142.167 222.167,141.833 223,141.5C 225.589,142.986 228.423,143.653 231.5,143.5C 231.67,142.178 231.337,141.011 230.5,140C 227.391,139.356 224.557,138.189 222,136.5C 220.665,132.392 221.832,129.392 225.5,127.5 Z"/></g>
<g><path style="opacity:1" fill="#101010" d="M 142.5,128.5 C 144.167,128.5 145.833,128.5 147.5,128.5C 147.5,134.833 147.5,141.167 147.5,147.5C 146.5,147.5 145.5,147.5 144.5,147.5C 144.824,143.445 144.491,139.445 143.5,135.5C 142.702,135.957 142.369,136.624 142.5,137.5C 141.351,140.422 140.351,143.422 139.5,146.5C 138.311,147.429 136.978,147.762 135.5,147.5C 135.3,144.37 134.634,141.37 133.5,138.5C 133.719,137.325 133.386,136.325 132.5,135.5C 131.509,139.445 131.176,143.445 131.5,147.5C 130.167,147.5 128.833,147.5 127.5,147.5C 127.5,141.167 127.5,134.833 127.5,128.5C 129.833,128.5 132.167,128.5 134.5,128.5C 135.044,132.673 136.21,136.673 138,140.5C 139.234,136.285 140.734,132.285 142.5,128.5 Z"/></g>
<g><path style="opacity:1" fill="#666666" d="M 144.5,147.5 C 143.833,144.167 143.167,140.833 142.5,137.5C 142.369,136.624 142.702,135.957 143.5,135.5C 144.491,139.445 144.824,143.445 144.5,147.5 Z"/></g>
<g><path style="opacity:1" fill="#777777" d="M 133.5,138.5 C 132.833,141.5 132.167,144.5 131.5,147.5C 131.176,143.445 131.509,139.445 132.5,135.5C 133.386,136.325 133.719,137.325 133.5,138.5 Z"/></g>
</svg>
