<svg width="116" height="32" viewBox="0 0 116 32" fill="none" xmlns="http://www.w3.org/2000/svg">
<g clip-path="url(#clip0_119_343)">
<path d="M108.318 7.20964C108.222 5.49397 107.624 3.75903 106.448 2.46747C105.157 1.02168 103.306 0.231325 101.417 0H72.4434C68.2024 0.481928 64.3663 3.35421 62.5157 7.19036V7.20964C44.3759 7.20964 26.2169 7.20964 8.07711 7.20964C5.14699 7.20964 2.46747 9.54217 1.88916 12.3952C1.25301 14.9205 0.539759 17.388 0 19.9325V21.2048C0.13494 22.1494 0.53976 23.094 1.21446 23.7494C2.13976 24.6554 3.4506 24.9831 4.72289 24.9831C22.3036 24.9831 39.8843 24.9831 57.4651 24.9831C57.5614 26.7373 58.2169 28.4337 59.4313 29.706C60.6651 31.0361 62.4771 31.8072 64.2892 32H92.9157C97.253 31.653 101.224 28.8 103.229 24.9639L108.318 7.20964Z" fill="#2185C7"/>
<path d="M109.667 5.01214C109.899 5.16636 110.149 5.30129 110.419 5.3784C110.689 5.45551 110.959 5.47479 111.248 5.45551C111.614 5.41696 111.981 5.28202 112.27 5.05069C112.521 4.8772 112.713 4.64587 112.848 4.39527C113.06 4.029 113.157 3.62419 113.137 3.21937C113.137 2.93021 113.041 2.6025 112.906 2.33262C112.79 2.08202 112.617 1.85069 112.405 1.6772C112.135 1.44587 111.827 1.27238 111.48 1.19527C111.248 1.15672 111.036 1.11816 110.805 1.15672C110.458 1.17599 110.149 1.29166 109.86 1.44587C109.571 1.61937 109.301 1.86997 109.108 2.1784C108.935 2.46756 108.819 2.83382 108.8 3.20009C108.781 3.60491 108.877 4.04828 109.07 4.39527C109.243 4.60732 109.436 4.81937 109.667 5.01214ZM109.282 3.08443C109.321 2.77599 109.436 2.46756 109.629 2.23623C109.841 1.98563 110.072 1.77358 110.381 1.6772C110.535 1.60009 110.689 1.58081 110.863 1.56153C111.094 1.54226 111.345 1.56153 111.537 1.65792C111.827 1.75431 112.077 1.9278 112.289 2.15913C112.521 2.40973 112.655 2.69888 112.694 3.0266C112.733 3.31575 112.713 3.64346 112.598 3.91334C112.501 4.14467 112.386 4.33744 112.212 4.51093C112.058 4.66515 111.865 4.80009 111.672 4.89647C111.402 5.01214 111.094 5.05069 110.766 5.03141C110.4 4.99286 110.072 4.81937 109.822 4.56876C109.59 4.35672 109.436 4.08684 109.34 3.79768C109.263 3.54708 109.243 3.29648 109.282 3.08443ZM110.612 4.37599C110.612 4.08684 110.612 3.81696 110.612 3.50852C110.689 3.50852 110.747 3.50852 110.843 3.50852C110.882 3.50852 110.959 3.5278 110.998 3.54708C111.036 3.56635 111.094 3.62418 111.113 3.68202C111.152 3.75912 111.19 3.81696 111.229 3.89407C111.306 4.04828 111.383 4.2025 111.46 4.37599C111.672 4.37599 111.865 4.37599 112.077 4.37599C111.961 4.16395 111.865 3.97117 111.769 3.75913C111.73 3.64346 111.653 3.5278 111.557 3.45069C111.48 3.37358 111.422 3.3543 111.345 3.33503C111.383 3.31575 111.422 3.31575 111.46 3.29647C111.576 3.25792 111.672 3.16153 111.711 3.06515C111.749 2.96876 111.788 2.89166 111.788 2.79527C111.788 2.69889 111.788 2.62178 111.749 2.52539C111.73 2.44828 111.672 2.39045 111.634 2.3519C111.537 2.25551 111.402 2.21696 111.268 2.1784C111.152 2.15912 111.036 2.15913 110.901 2.15913C110.612 2.15913 110.323 2.15913 110.014 2.15913C110.014 2.91093 110.014 3.68202 110.014 4.43383C110.227 4.37599 110.439 4.37599 110.612 4.37599ZM110.612 2.50611C110.689 2.50611 110.747 2.50611 110.843 2.50611C110.94 2.50611 111.017 2.50611 111.094 2.54467C111.133 2.56395 111.19 2.62177 111.21 2.66033C111.229 2.73744 111.229 2.79527 111.229 2.83382C111.229 2.91093 111.21 2.96877 111.133 2.98804C111.055 3.0266 110.998 3.06515 110.901 3.06515C110.805 3.06515 110.728 3.06515 110.631 3.06515C110.612 2.89166 110.612 2.71816 110.612 2.50611Z" fill="#2185C7"/>
<path d="M103.229 24.9446C105.214 24.8482 107.296 25.2145 109.243 24.5976C111.422 23.8651 113.137 21.9952 113.677 19.7398C114.313 17.2723 115.084 14.8434 115.663 12.3567V11.0651C115.451 9.67715 114.641 8.38559 113.388 7.74944C111.827 6.90125 110.014 7.28679 108.318 7.20968L103.229 24.9446Z" fill="#2185C7"/>
<path d="M12.3566 18.2169C11.4699 18.294 10.5639 18.2362 9.69638 18.2362C9.4265 19.1036 9.15662 19.9904 8.88674 20.8386C7.98072 20.8386 7.07469 20.8386 6.16867 20.8386C7.24819 17.3109 8.38554 13.7639 9.48433 10.2362C11.3349 10.2554 13.1663 10.2169 15.0169 10.2362C16.0386 10.2554 16.8675 11.2193 16.7325 12.241C16.5783 13.359 16.1157 14.3807 15.8265 15.441C15.3831 16.9831 13.9373 18.159 12.3566 18.2169ZM15.2482 20.8578C16.3277 17.3301 17.4651 13.8024 18.5446 10.2747C19.4506 10.2554 20.3566 10.2554 21.2819 10.2747C20.4723 12.935 19.6241 15.5566 18.7952 18.2169C19.6626 18.2169 20.4916 18.2169 21.3398 18.2169C21.6289 17.3109 21.8988 16.4241 22.1687 15.5374C23.0747 15.5374 23.9807 15.5374 24.8867 15.5374C24.347 17.3109 23.7879 19.1036 23.2096 20.8578C20.5687 20.8578 17.9277 20.8578 15.2482 20.8578ZM34.7566 12.9928C33.947 15.6145 33.0988 18.2362 32.2892 20.8578C31.3831 20.8578 30.4771 20.8578 29.5711 20.8578C29.841 19.9904 30.1108 19.1036 30.3807 18.2554C29.5132 18.2554 28.6843 18.2554 27.8361 18.2554C27.5663 19.1229 27.2964 20.0096 27.0265 20.8578C26.1205 20.8578 25.2145 20.8578 24.3084 20.8578C25.1181 18.2747 25.9277 15.6916 26.7566 13.1084C27.2 11.5277 28.7422 10.2362 30.4193 10.2747C31.3831 10.2747 32.3855 10.2362 33.3494 10.3133C34.6024 10.4289 35.2385 11.894 34.7566 12.9928ZM43.2385 15.5181C42.7373 17.041 41.2916 18.1012 39.7301 18.2554C39.4602 19.1229 39.1904 19.9711 38.9205 20.8386C38.0145 20.8386 37.1084 20.8386 36.2024 20.8386C36.4723 19.9711 36.7422 19.1422 37.012 18.2747C36.453 18.1205 35.7783 18.0048 35.4313 17.4651C34.9879 16.8289 35.0651 16.0193 35.2964 15.306C35.8169 13.6289 36.3566 11.9518 36.8771 10.2554C37.7831 10.2362 38.6892 10.2362 39.6145 10.2362C39.0554 12.0096 38.4771 13.7639 37.9373 15.5566C38.7663 15.5566 39.6337 15.5566 40.4819 15.5566C41.041 13.7831 41.5807 11.9904 42.159 10.2362C43.0651 10.2362 43.9711 10.2362 44.8771 10.2362C44.3373 12.0096 43.7976 13.7639 43.2385 15.5181ZM46.3422 10.5446C47.5181 10.5446 48.694 10.5446 49.8892 10.5446C49.5422 11.5856 49.1566 12.6072 48.8289 13.6482C47.653 13.6482 46.4771 13.6482 45.3012 13.6482C45.6482 12.6072 45.9952 11.5663 46.3422 10.5446ZM56.1928 16.347C55.7687 17.8506 55.306 19.3349 54.8819 20.8578C53.9759 20.8578 53.0699 20.8578 52.1639 20.8578C52.6072 19.2386 53.1084 17.6578 53.5711 16.0578C52.7036 16.0578 51.8747 16.0578 51.0265 16.0578C50.5446 17.6386 50.1012 19.2578 49.6193 20.8578C48.7132 20.8578 47.8072 20.8578 46.9012 20.8578C47.3446 19.3349 47.7879 17.7928 48.2313 16.2506C48.6554 14.6313 50.2169 13.3783 51.894 13.3976C52.8193 13.3783 53.7446 13.3591 54.6699 13.4169C55.2867 13.4554 55.8843 13.7639 56.1542 14.3229C56.5205 14.9398 56.3855 15.6916 56.1928 16.347Z" fill="white"/>
<path d="M72.0386 29.1084C69.706 29.147 67.3542 29.1277 65.041 29.1277C63.4988 29.147 61.8988 28.4723 61.0313 27.1229C60.1446 25.7928 60.1253 24.0578 60.6072 22.5735C61.9181 18.3711 63.2482 14.188 64.559 9.96626C65.6578 5.84096 69.7639 2.60241 74.0819 2.81445C77.9759 2.83373 81.8506 2.81446 85.7446 2.83373C85.0892 5.01205 84.3952 7.17108 83.7012 9.3494C79.6145 9.3494 75.4892 9.36867 71.4024 9.3494C69.9952 13.7639 68.6072 18.1976 67.2193 22.612C69.3976 22.612 71.5373 22.612 73.6964 22.612C74.0434 21.4747 74.3904 20.3373 74.7566 19.2193C73.6771 19.2193 72.559 19.2193 71.4795 19.2193C72.1349 17.0602 72.8289 14.9205 73.4843 12.7614C76.6458 12.7614 79.788 12.7614 82.9494 12.7614C81.8892 16.0964 80.8675 19.4506 79.788 22.8048C78.6699 26.1012 75.6048 28.8964 72.0386 29.1084ZM101.359 21.8795C100.202 26.0819 96.0771 29.3012 91.7012 29.1663C89.7542 29.147 87.7879 29.2048 85.841 29.1277C84.3566 29.0506 82.8723 28.3759 82.0434 27.1229C81.1181 25.7542 81.041 24 81.5229 22.4578C82.8723 18.159 84.2217 13.841 85.5711 9.54217C86.5349 6.1494 89.5036 3.4506 92.9157 2.62168C94.9783 2.25542 97.0795 2.5253 99.1614 2.46747C100.761 2.42891 102.554 2.39036 103.884 3.48915C105.542 4.74217 105.947 7.0747 105.369 8.98313C104.058 13.2626 102.689 17.5614 101.359 21.8795Z" fill="#ED1F24"/>
<path d="M92.4916 9.40725C91.1422 13.8217 89.7542 18.2362 88.3855 22.6121C90.3711 22.6121 92.3566 22.6121 94.3422 22.6121C95.7301 18.2169 97.0988 13.8217 98.4482 9.40725C96.4819 9.40725 94.4771 9.38797 92.4916 9.40725ZM10.5446 15.5759C11.4121 15.5759 12.241 15.5759 13.0892 15.5759C13.359 14.6892 13.6482 13.8024 13.9181 12.9157C13.0506 12.9157 12.2024 12.9157 11.3349 12.9157C11.0651 13.8024 10.7952 14.6892 10.5446 15.5759ZM28.7036 15.5759C29.5325 15.5759 30.4 15.5759 31.2482 15.5759C31.5181 14.6892 31.8072 13.8024 32.0771 12.9157C31.2482 12.9157 30.3807 12.9157 29.5325 12.9157C29.2434 13.8024 28.9542 14.6892 28.7036 15.5759Z" fill="#2185C7"/>
</g>
<defs>
<clipPath id="clip0_119_343">
<rect width="115.66" height="32" fill="white"/>
</clipPath>
</defs>
</svg>
