<svg xmlns="http://www.w3.org/2000/svg" width="300" height="148" style="shape-rendering:geometricPrecision;text-rendering:geometricPrecision;image-rendering:optimizeQuality;fill-rule:evenodd;clip-rule:evenodd"><path fill="#f8f7e9" d="M54.5 15.5c1.333.667 1.333.667 0 0Z" style="opacity:.035"/><path fill="#f8f9ec" d="M150.5 17.5c1.333.667 1.333.667 0 0Z" style="opacity:.024"/><path fill="#eeeff0" d="M45.5 19.5c1.333.667 1.333.667 0 0Z" style="opacity:.012"/><path fill="#f3edca" d="M95.5 23.5h-2c-.418-.722-1.084-1.222-2-1.5-14.173-.827-28.173-.66-42 .5l-4 1c.38-1.431 1.38-2.265 3-2.5l-1-1a9.624 9.624 0 0 1 4.5-1.5 392 392 0 0 0 38 0c2.375 1.215 4.209 2.881 5.5 5Z" style="opacity:.169"/><path fill="#f2f0d7" d="M143.5 20.5a840.9 840.9 0 0 0-41 .5c-.556.383-.889.883-1 1.5l-2 3h-1c1.025-5.07 4.192-7.403 9.5-7 10.554 1.028 21.221 1.028 32 0l4.5.5c-.556.383-.889.883-1 1.5Z" style="opacity:.792"/><path fill="#f0efd4" d="m206.5 24.5-2-1-2-2c-14.494-1.16-29.161-1.328-44-.5-.556.383-.889.883-1 1.5-.333 1-1 1.667-2 2a9.173 9.173 0 0 1 2-4.5c2.536-.34 5.036-.84 7.5-1.5 12.836.044 25.669.544 38.5 1.5a8.908 8.908 0 0 0 4 3c-.556.383-.889.883-1 1.5Z" style="opacity:.381"/><path fill="#f2eec9" d="M277.5 22.5h-3c-13.827-1.16-27.827-1.327-42-.5-.556.383-.889.883-1 1.5h-2c.622-1.835 1.956-3.002 4-3.5a34.919 34.919 0 0 1 9-1.5c10.965 1.046 21.798 1.046 32.5 0a6.977 6.977 0 0 0 3.5 2.5c-.556.383-.889.883-1 1.5Z" style="opacity:.795"/><path fill="#efe7a9" d="M143.5 20.5c3.108-.125 5.108 1.208 6 4l-2-1c-.418-.722-1.084-1.222-2-1.5-14.173-.827-28.173-.66-42 .5h-2c.111-.617.444-1.117 1-1.5a840.9 840.9 0 0 1 41-.5Z" style="opacity:1"/><path fill="#ede6a5" d="M202.5 21.5c-14.51-.33-28.843.004-43 1h-2c.111-.617.444-1.117 1-1.5 14.839-.828 29.506-.66 44 .5Z" style="opacity:1"/><path fill="#8a7a09" d="M49.5 22.5c13.827-1.16 27.827-1.327 42-.5.916.278 1.582.778 2 1.5.284 1.915-.049 3.581-1 5 .359-2.266-.308-4.1-2-5.5a180.95 180.95 0 0 0-19-.5h-22Z" style="opacity:1"/><path fill="#84780a" d="M103.5 22.5c13.827-1.16 27.827-1.327 42-.5.916.278 1.582.778 2 1.5-.667 0-1 .333-1 1-.789-.283-1.456-.783-2-1.5a840.9 840.9 0 0 0-41-.5Z" style="opacity:1"/><path fill="#85790b" d="M159.5 22.5a462.834 462.834 0 0 1 43-1l2 2h-1a508.886 508.886 0 0 0-44-1Z" style="opacity:1"/><path fill="#887b07" d="M274.5 22.5c-13.337-.167-26.671 0-40 .5-1.692 1.4-2.359 3.234-2 5.5h-1v-5c.111-.617.444-1.117 1-1.5 14.173-.827 28.173-.66 42 .5Z" style="opacity:1"/><path fill="#fef2e8" d="M39.5 23.5c1.333.667 1.333.667 0 0Z" style="opacity:.043"/><path fill="#e5eae4" d="M95.5 23.5c1.924.21 2.257.877 1 2-.838-.342-1.172-1.008-1-2Z" style="opacity:.078"/><path fill="#eafffe" d="M226.5 23.5c1.333.667 1.333.667 0 0Z" style="opacity:.035"/><path fill="#eefffe" d="M41.5 23.5c1.025.397 1.192 1.063.5 2a2.428 2.428 0 0 1-.5-2Z" style="opacity:.012"/><path fill="#fcd74d" d="M260.5 23.5c-1.007 2.022-2.674 3.355-5 4a4.451 4.451 0 0 0 2 1.5c-1.537 1.11-2.203 2.61-2 4.5h-8c-.461-2.416-1.794-4.25-4-5.5.259-1.261.926-2.261 2-3a45.88 45.88 0 0 1 15-1.5Z" style="opacity:1"/><path fill="#fdf970" d="M103.5 22.5a840.9 840.9 0 0 1 41 .5c.544.717 1.211 1.217 2 1.5.268 1.599-.066 2.932-1 4-1.785-2.454-4.118-4.121-7-5 .192 4.788-2.141 7.788-7 9l-7.5 1a998.053 998.053 0 0 0-11.5-1.5c1.333 2.782.833 5.282-1.5 7.5a128.508 128.508 0 0 0-.5 16v8l-2-31c0-.667-.333-1-1-1h-1c-3.862-1.926-4.862-4.926-3-9Z" style="opacity:1"/><path fill="#d3b12a" d="M63.5 33.5c-.683-1.677-2.017-2.343-4-2v8h-3a32.437 32.437 0 0 0-.5-8 119.404 119.404 0 0 0-6.5-4 31.593 31.593 0 0 0 5-3 148.81 148.81 0 0 0 12 2 9.106 9.106 0 0 0 1 5c-.82 1.611-2.154 2.278-4 2Z" style="opacity:1"/><path fill="#edfaf7" d="M151.5 27.5c1.333.667 1.333.667 0 0Z" style="opacity:.012"/><path fill="#cdaeb1" d="M98.5 26.5v5l-2-1v-3l2-1Z" style="opacity:1"/><path fill="#fcef64" d="M159.5 22.5c14.715-.3 29.382.033 44 1 1.71 5.057-.29 7.557-6 7.5a9.457 9.457 0 0 0-1.5 2.5 721.826 721.826 0 0 0-.5 38h-1v-32h-7c-.543-.06-.876-.393-1-1 1.353-1.024 2.02-2.357 2-4h-5a82.858 82.858 0 0 1-13-3v-3h-5c-.273-1.951.393-3.451 2-4.5-3.322-.091-6.155 1.076-8.5 3.5a4.934 4.934 0 0 1-.5-3l1-2Z" style="opacity:1"/><path fill="#67220f" d="M229.5 23.5h2v5c.206 2.542 1.539 4.209 4 5 1.329 23.496 1.329 46.83 0 70v-67h-3c-.667-2-2-3.333-4-4-1.35-3.233-1.017-6.233 1-9Z" style="opacity:1"/><path fill="#ddbb32" d="M260.5 23.5a84.94 84.94 0 0 1 13 .5 30.217 30.217 0 0 1 3 3.5c-.333 1-1 1.667-2 2-1.764-1.212-3.43-.879-5 1a23.833 23.833 0 0 0-1 9 13.216 13.216 0 0 0-5-2v-4h-8c-.203-1.89.463-3.39 2-4.5a4.451 4.451 0 0 1-2-1.5c2.326-.645 3.993-1.978 5-4Z" style="opacity:1"/><path fill="#a78683" d="M277.5 22.5c2.272 1.518 3.605 3.685 4 6.5-1.333 1-1.333 2 0 3-.544.717-1.211 1.217-2 1.5v-5c-.204-2.185-.87-4.185-2-6Z" style="opacity:.957"/><path fill="#edc73c" d="m71.5 23.5 8 2v8a41.58 41.58 0 0 0-8 1h-8v-1c1.846.278 3.18-.389 4-2a9.106 9.106 0 0 1-1-5 148.81 148.81 0 0 1-12-2 31.593 31.593 0 0 1-5 3c-1.145-1.293-.812-2.46 1-3.5 6.992-.5 13.992-.666 21-.5Z" style="opacity:1"/><path fill="#7d510a" d="M101.5 22.5h2c-1.862 4.074-.862 7.074 3 9-1.478.262-2.811-.071-4-1-.775-1.896-1.775-3.563-3-5l2-3Z" style="opacity:1"/><path fill="#fdfa87" d="M145.5 28.5c0 .667-.333 1-1 1a39.098 39.098 0 0 0-4.5 2 511.932 511.932 0 0 0-.5 32h-8c.788-3.12 2.788-4.788 6-5a50.3 50.3 0 0 0 0-19c-2.979.856-4.312-.477-4-4-5.878-1.22-11.711-1.22-17.5 0-.736 4.22-2.236 8.053-4.5 11.5 2.048 2.533 3.381 5.366 4 8.5h-5c-.166-5.344.001-10.677.5-16 2.333-2.218 2.833-4.718 1.5-7.5 3.748.466 7.581.966 11.5 1.5l7.5-1c4.859-1.212 7.192-4.212 7-9 2.882.879 5.215 2.546 7 5Z" style="opacity:1"/><path fill="#aa7f76" d="M43.5 32.5c2.032.548 3.032 1.881 3 4h-2l-1-4Z" style="opacity:1"/><path fill="#f5ecea" d="M150.5 33.5c1.333.667 1.333.667 0 0Z" style="opacity:.035"/><path fill="#fced62" d="M274.5 22.5c1.468 1.28 2.135 2.946 2 5a30.217 30.217 0 0 0-3-3.5 84.94 84.94 0 0 0-13-.5 45.88 45.88 0 0 0-15 1.5c-1.074.739-1.741 1.739-2 3 2.206 1.25 3.539 3.084 4 5.5h8v1h-10c.667 4-1 5.667-5 5v16l-2-22c-.194-2.412-1.527-3.412-4-3l-2-2c-.359-2.266.308-4.1 2-5.5 13.329-.5 26.663-.667 40-.5Z" style="opacity:1"/><path fill="#edfffd" d="M97.5 34.5c1.333.667 1.333.667 0 0Z" style="opacity:.024"/><path fill="#f5eeeb" d="M149.5 34.5h1v1l-1-1Z" style="opacity:.024"/><path fill="#b69088" d="M228.5 32.5c2 .667 3.333 2 4 4-2.333-.333-3.667-1.667-4-4Z" style="opacity:.776"/><path fill="#ebf9f4" d="M43.5 36.5a2.428 2.428 0 0 1-2-.5c.937-.692 1.603-.525 2 .5Z" style="opacity:.024"/><path fill="#fdf165" d="M71.5 23.5v-1c6.342-.166 12.675 0 19 .5 1.692 1.4 2.359 3.234 2 5.5l-2 1c-1.562.233-2.895.9-4 2l-2 32v-8a64.875 64.875 0 0 0-1-16c-1.024-1.353-2.357-2.02-4-2v-12l-8-2Z" style="opacity:1"/><path fill="#f0ebee" d="M97.5 35.5c-.667.667-.667.667 0 0Z" style="opacity:.035"/><path fill="#e7eeeb" d="M150.5 35.5c1.333.667 1.333.667 0 0Z" style="opacity:.043"/><path fill="#e3d1cf" d="M278.5 34.5v2c-1 1.333-2 1.333-3 0 .79-.901 1.79-1.568 3-2Z" style="opacity:.024"/><path fill="#e8efee" d="M43.5 36.5h1c-.185.67-.519.67-1 0Z" style="opacity:.043"/><path fill="#6d2512" d="m147.5 23.5 2 1c.789.283 1.456.783 2 1.5-1.274.977-1.274 1.81 0 2.5a20.691 20.691 0 0 1-1 5c-.667 0-1 .333-1 1h-1c-1.868.763-3.535 1.763-5 3v69c-1.99-23.977-2.657-48.31-2-73l3-4c.667 0 1-.333 1-1 .934-1.068 1.268-2.401 1-4 0-.667.333-1 1-1Z" style="opacity:1"/><path fill="#e6d4ce" d="M148.5 34.5c-.8 2.24-2.466 3.24-5 3 1.465-1.237 3.132-2.237 5-3Z" style="opacity:.055"/><path fill="#ebf3eb" d="M156.5 36.5c-.667.667-.667.667 0 0Z" style="opacity:.024"/><path fill="#eefffe" d="M278.5 36.5c1.333.667 1.333.667 0 0Z" style="opacity:.012"/><path fill="#ecebeb" d="M40.5 37.5c1.333.667 1.333.667 0 0Z" style="opacity:.035"/><path fill="#e4dbd9" d="M47.5 36.5c1.291-.237 2.291.096 3 1a2.428 2.428 0 0 0-2 .5c1.196.654 1.196 1.154 0 1.5-.886-.825-1.219-1.825-1-3Z" style="opacity:.024"/><path fill="#f7eff3" d="M97.5 37.5c1.333.667 1.333.667 0 0Z" style="opacity:.012"/><path fill="#fcfb84" d="M183.5 34.5h-12v5h-5v24l-2-31c0-.667-.333-1-1-1a19.83 19.83 0 0 0-5.5-3c-.765-1.566-.598-2.9.5-4a4.934 4.934 0 0 0 .5 3c2.345-2.424 5.178-3.591 8.5-3.5-1.607 1.049-2.273 2.549-2 4.5h5v3a82.858 82.858 0 0 0 13 3Z" style="opacity:1"/><path fill="#edeaea" d="M227.5 37.5c1.333.667 1.333.667 0 0Z" style="opacity:.035"/><path fill="#ebeff3" d="M230.5 37.5c1.333.667 1.333.667 0 0Z" style="opacity:.024"/><path fill="#ecf2eb" d="M40.5 38.5c-.667.667-.667.667 0 0Z" style="opacity:.024"/><path fill="#e2ffed" d="M95.5 38.5c1.333.667 1.333.667 0 0Z" style="opacity:.078"/><path fill="#f0efef" d="M154.5 38.5c1.333.667 1.333.667 0 0Z" style="opacity:.012"/><path fill="#edf7f5" d="M203.5 38.5c1.333.667 1.333.667 0 0Z" style="opacity:.012"/><path fill="#6c1b16" d="M52.5 33.5a729.596 729.596 0 0 1-1 54v-4a541.697 541.697 0 0 0-1-46c-.709-.904-1.709-1.237-3-1h-1c.032-2.119-.968-3.452-3-4-1.333-2-1.333-4 0-6 .617-.11 1.117-.444 1.5-1 .68 4.51 3.18 7.177 7.5 8Z" style="opacity:1"/><path fill="#793001" d="M90.5 31.5c-.283.79-.783 1.456-1.5 2a2034.132 2034.132 0 0 1-1.5 64c-.167-21.67 0-43.336.5-65 .67-.752 1.504-1.086 2.5-1Z" style="opacity:1"/><path fill="#b8918f" d="M91.5 36.5a26975.53 26975.53 0 0 1-2 64c-.656-21.693.011-43.026 2-64Z" style="opacity:.573"/><path fill="#742f05" d="M231.5 28.5h1l2 2c.672.767 1.505 1.434 2.5 2 .814 24.71.647 49.376-.5 74h-1v-3c1.329-23.17 1.329-46.504 0-70-2.461-.791-3.794-2.458-4-5Z" style="opacity:1"/><path fill="#825205" d="M274.5 22.5h3c1.13 1.815 1.796 3.815 2 6a31.321 31.321 0 0 0-8 7v70l-2-2c-.167-23.336 0-46.669.5-70 .748-2.251 2.248-3.584 4.5-4 1-.333 1.667-1 2-2 .135-2.054-.532-3.72-2-5Z" style="opacity:1"/><path fill="#682805" d="m271.5 35.5 2 68v4c-1.333 0-2-.667-2-2v-70Z" style="opacity:1"/><path fill="#691510" d="M279.5 28.5v5c0 .667-.333 1-1 1-1.21.432-2.21 1.099-3 2-.617.11-1.117.444-1.5 1a2177.1 2177.1 0 0 0-.5 66l-2-68a31.321 31.321 0 0 1 8-7Z" style="opacity:1"/><path fill="#fefca5" d="M131.5 63.5c-1.884 1.175-4.051 1.842-6.5 2a41.966 41.966 0 0 1-8.5-2l-1-8c-.619-3.134-1.952-5.967-4-8.5 2.264-3.447 3.764-7.28 4.5-11.5 5.789-1.22 11.622-1.22 17.5 0-.312 3.523 1.021 4.856 4 4a50.3 50.3 0 0 1 0 19c-3.212.212-5.212 1.88-6 5Z" style="opacity:1"/><path fill="#edd571" d="M79.5 33.5v4c1.643-.02 2.976.647 4 2a64.875 64.875 0 0 1 1 16h-4a8.434 8.434 0 0 0-.5-4c-.67.752-1.504 1.086-2.5 1v-5c-1.322.17-2.489-.163-3.5-1-1.413-2.152-2.246-4.486-2.5-7h-4v-4c1.599.268 2.932-.066 4-1a41.58 41.58 0 0 1 8-1Z" style="opacity:1"/><path fill="#743103" d="M107.5 38.5a2177.1 2177.1 0 0 1-.5 66c-.278.916-.778 1.582-1.5 2v-3l2-65Z" style="opacity:1"/><path fill="#69240e" d="M157.5 22.5h2l-1 2c-1.098 1.1-1.265 2.434-.5 4a19.83 19.83 0 0 1 5.5 3v7l-2 65v-67h-5c-1.391-2.291-2.391-4.791-3-7.5.025-1.876.691-3.376 2-4.5 1-.333 1.667-1 2-2Z" style="opacity:1"/><path fill="#fefda4" d="M183.5 34.5h5c.02 1.643-.647 2.976-2 4 .124.607.457.94 1 1a40.911 40.911 0 0 1-.5 9 51.723 51.723 0 0 0-6 10c-2.434 1.523-5.101 2.523-8 3-2.041-.923-4.208-1.256-6.5-1v-21h5v-5h12Z" style="opacity:1"/><path fill="#fefebe" d="M175.5 36.5h6a53.646 53.646 0 0 1 2 7 43.492 43.492 0 0 0-3 12h-7c-.418-6.498.248-12.832 2-19Z" style="opacity:1"/><path fill="#e5cc65" d="M255.5 34.5c1.291-.237 2.291.096 3 1a51.648 51.648 0 0 1-7 1v3h-4a73.312 73.312 0 0 1-1 12v4c-1.951-.273-3.451.393-4.5 2-.278-.916-.778-1.583-1.5-2v-16c4 .667 5.667-1 5-5h10Z" style="opacity:1"/><path fill="#bd9d2f" d="M263.5 37.5c1.822.33 3.489.998 5 2v24c-2.938-.227-5.271.773-7 3-.438-1.006-1.104-1.006-2 0a267.983 267.983 0 0 1 2-21 19.051 19.051 0 0 1-1-6c1.679.215 2.679-.452 3-2Z" style="opacity:1"/><path fill="#d2bc69" d="M67.5 39.5h4c.254 2.514 1.087 4.848 2.5 7 1.011.837 2.178 1.17 3.5 1v8h-3a37.944 37.944 0 0 1-2.5 8 22.584 22.584 0 0 1-4-8l-1 2c-2.125-6.21-1.959-12.21.5-18Z" style="opacity:1"/><path fill="#fefebd" d="M121.5 36.5h8a56.026 56.026 0 0 1 1.5 21c-1.415 2.92-3.582 4.92-6.5 6l-3-1c-5.372-6.858-7.038-14.524-5-23 2.489.26 4.156-.74 5-3Z" style="opacity:1"/><path fill="#fefed1" d="M121.5 39.5h7a53.781 53.781 0 0 1 2 16h-3c.05 2.09-.95 3.423-3 4a32.367 32.367 0 0 0-4.5-3 84.773 84.773 0 0 0-1.5-10.5 58.548 58.548 0 0 1 3-6.5Z" style="opacity:1"/><path fill="#e5ce7a" d="M258.5 35.5c.072 5.378-1.261 10.378-4 15a19.374 19.374 0 0 1-8 1 73.312 73.312 0 0 0 1-12h4v-3a51.648 51.648 0 0 0 7-1Z" style="opacity:1"/><path fill="#b7928c" d="M232.5 36.5h3v70a5.727 5.727 0 0 0-3 1c-.838-.342-1.172-1.008-1-2 .996.086 1.829-.248 2.5-1l.5-32.5a542.81 542.81 0 0 1 0-34c-.916-.278-1.582-.778-2-1.5Z" style="opacity:.569"/><path fill="#cdc114" d="m238.5 33.5 2 22v16l-2 8v-46Z" style="opacity:1"/><path fill="#855902" d="M107.5 31.5c.667 0 1 .333 1 1v47c.166 8.673 0 17.34-.5 26a25.96 25.96 0 0 0-5.5 5c-1.186 1.205-1.186 2.539 0 4-.617.111-1.117.444-1.5 1a12.93 12.93 0 0 1-.5-5c1.085-2.087 2.751-3.42 5-4 .722-.418 1.222-1.084 1.5-2 .5-21.998.667-43.998.5-66v-7Z" style="opacity:1"/><path fill="#743003" d="M163.5 38.5a2177.1 2177.1 0 0 1-.5 66c-.278.916-.778 1.582-1.5 2v-3l2-65Z" style="opacity:1"/><path fill="#f6e085" d="M187.5 39.5h7v8h-3a145.241 145.241 0 0 1-8 17l-8 3a29.155 29.155 0 0 0-9-1v-6c2.292-.256 4.459.077 6.5 1 2.899-.477 5.566-1.477 8-3a51.723 51.723 0 0 1 6-10c.498-2.982.665-5.982.5-9Z" style="opacity:1"/><path fill="#c9ad4b" d="M63.5 34.5h8c-1.068.934-2.401 1.268-4 1v4c-2.459 5.79-2.625 11.79-.5 18l1-2a22.584 22.584 0 0 0 4 8 37.944 37.944 0 0 0 2.5-8h3v-3c.996.086 1.83-.248 2.5-1a8.434 8.434 0 0 1 .5 4h4v14c-1.92 1.112-3.586 2.446-5 4-3.348-2.074-6.848-2.407-10.5-1-7.056-11.763-8.89-24.43-5.5-38Z" style="opacity:1"/><path fill="#865b03" d="M163.5 31.5c.667 0 1 .333 1 1v47c.166 8.673 0 17.34-.5 26a23.498 23.498 0 0 1-5.5 4v-1c.473-1.406 1.473-2.073 3-2 .722-.418 1.222-1.084 1.5-2 .5-21.998.667-43.998.5-66v-7Z" style="opacity:1"/><path fill="#f7e214" d="M49.5 22.5h22v1c-7.008-.166-14.008 0-21 .5-1.812 1.04-2.145 2.207-1 3.5a119.404 119.404 0 0 1 6.5 4c.497 2.646.664 5.313.5 8v48h-1c.167-18.003 0-36.003-.5-54a9.468 9.468 0 0 0-1.5-2.5c-6.261-.442-7.595-3.275-4-8.5Z" style="opacity:1"/><path fill="#611b04" d="M98.5 25.5h1c1.225 1.437 2.225 3.104 3 5 1.189.929 2.522 1.262 4 1h1v7l-2 65c.167-22.336 0-44.67-.5-67a39.098 39.098 0 0 0-4.5-2c-1.406-.473-2.073-1.473-2-3v-6Z" style="opacity:1"/><path fill="#8a5903" d="M234.5 30.5c2.473-.412 3.806.588 4 3v72l-2 1a930.975 930.975 0 0 0 .5-74c-.995-.566-1.828-1.233-2.5-2Z" style="opacity:1"/><path fill="#cdb254" d="M255.5 34.5v-1h8v4c-.321 1.548-1.321 2.215-3 2a19.051 19.051 0 0 0 1 6 267.983 267.983 0 0 0-2 21 9.173 9.173 0 0 1-2 4.5c-3.317.498-6.65.665-10 .5h-1v-20a19.374 19.374 0 0 0 8-1c2.739-4.622 4.072-9.622 4-15-.709-.904-1.709-1.237-3-1Z" style="opacity:1"/><path fill="#ebd478" d="M110.5 55.5h5l1 8a41.966 41.966 0 0 0 8.5 2c2.449-.158 4.616-.825 6.5-2h7v5a65.876 65.876 0 0 1-19 .5 36.383 36.383 0 0 0-9-8.5v-5Z" style="opacity:1"/><path fill="#b8938b" d="M100.5 34.5c1.53.567 3.03 1.233 4.5 2 .5 22.33.667 44.664.5 67v3c-2.249.58-3.915 1.913-5 4l-2 1c-.438.065-.772-.101-1-.5a34.706 34.706 0 0 0 6.5-7.5c.667-22 .667-44 0-66-1.729-.474-2.895-1.474-3.5-3Z" style="opacity:.573"/><path fill="#cfc01b" d="m108.5 32.5 2 31v16h-2v-47Z" style="opacity:1"/><path fill="#d8c017" d="M86.5 31.5v48h-2v-16l2-32Z" style="opacity:1"/><path fill="#d2c426" d="m164.5 32.5 2 31v16h-2v-47Z" style="opacity:1"/><path fill="#661c0b" d="M207.5 26.5c2.008 6.91-.659 10.577-8 11v69c-1.332-11.814-1.999-23.981-2-36.5l1-36.5a29.944 29.944 0 0 1 6.5-4l1-4c.383.556.883.89 1.5 1Z" style="opacity:1"/><path fill="#c09c2c" d="M240.5 55.5c.722.417 1.222 1.084 1.5 2 1.049-1.607 2.549-2.273 4.5-2v24h-6v-24Z" style="opacity:1"/><path fill="#cfb555" d="M194.5 47.5v13c-1.967-.24-3.801.094-5.5 1a64.884 64.884 0 0 0-3 12c-3.495 4.123-7.662 4.457-12.5 1a9.86 9.86 0 0 1-1-6h-6v-2a29.155 29.155 0 0 1 9 1l8-3a145.241 145.241 0 0 0 8-17h3Z" style="opacity:1"/><path fill="#d6af45" d="M261.5 66.5a68.047 68.047 0 0 1-2 13c-4.101.466-8.101.466-12 0v-8c3.35.165 6.683-.002 10-.5a9.173 9.173 0 0 0 2-4.5c.896-1.006 1.562-1.006 2 0Z" style="opacity:1"/><path fill="#875802" d="M90.5 29.5v2c-.996-.086-1.83.248-2.5 1a2112.9 2112.9 0 0 0-.5 65c-.493 2.319-1.493 4.319-3 6a97.131 97.131 0 0 0 2-24v-48c1.105-1.1 2.438-1.767 4-2Z" style="opacity:1"/><path fill="#d0aa3b" d="M63.5 33.5v1c-3.39 13.57-1.556 26.237 5.5 38 3.652-1.407 7.152-1.074 10.5 1a8.434 8.434 0 0 1-.5 4c-1.61-.65-3.11-.15-4.5 1.5a16.25 16.25 0 0 1-8 0c-3.898-5.834-5.73-12.334-5.5-19.5l-1 12c-.17-5.364-.67-10.697-1.5-16a44.293 44.293 0 0 1-2 3v-19h3v-8c1.983-.343 3.317.323 4 2Z" style="opacity:1"/><path fill="#c9a942" d="M110.5 60.5a36.383 36.383 0 0 1 9 8.5 65.876 65.876 0 0 0 19-.5v11h-23c.338-3.65-1.328-5.317-5-5v-14Z" style="opacity:1"/><path fill="#c7a437" d="M194.5 60.5v11c-1.545.73-2.378 2.063-2.5 4-.826-1.905-1.993-2.239-3.5-1-1.45 1.35-2.117 3.016-2 5h-15v-3c-2.014.109-3.68-.558-5-2v-6h6a9.86 9.86 0 0 0 1 6c4.838 3.457 9.005 3.123 12.5-1a64.884 64.884 0 0 1 3-12c1.699-.906 3.533-1.24 5.5-1Z" style="opacity:1"/><path fill="#f3f1d0" d="M46.5 79.5c-.667 0-1 .333-1 1a20.677 20.677 0 0 0-5-1c-3.104-1.275-6.104-1.275-9 0-2.358-.248-4.358.42-6 2-.418-.722-1.084-1.222-2-1.5 6.524-4.142 13.524-5.142 21-3 .88.708 1.547 1.542 2 2.5Z" style="opacity:.114"/><path fill="#f7f8ed" d="M17.5 79.5c1.333.667 1.333.667 0 0Z" style="opacity:.012"/><path fill="#f5edf1" d="M49.5 79.5c1.333.667 1.333.667 0 0Z" style="opacity:.024"/><path fill="#d2a42b" d="M79.5 73.5c1.414-1.554 3.08-2.888 5-4v10h-3c-.193 3.949-.693 3.949-1.5 0-1.713 1.693-3.713 3.026-6 4a42.814 42.814 0 0 0-8.5 0c-1.611-.82-2.278-2.154-2-4h-5c.536 3.198-.131 5.865-2 8v-29a44.293 44.293 0 0 0 2-3c.83 5.303 1.33 10.636 1.5 16l1-12c-.23 7.166 1.602 13.666 5.5 19.5a16.25 16.25 0 0 0 8 0c1.39-1.65 2.89-2.15 4.5-1.5a8.434 8.434 0 0 0 .5-4Z" style="opacity:1"/><path fill="#865204" d="M141.5 33.5c-.657 24.69.01 49.023 2 73a18.33 18.33 0 0 1 6 4c-.7 3.471-2.7 5.471-6 6a361.608 361.608 0 0 1-38-1c13.337.167 26.671 0 40-.5 2.207-4.972.54-7.472-5-7.5v-3c-.331-23.84.002-47.506 1-71Z" style="opacity:1"/><path fill="#835207" d="M203.5 23.5h1l2 1c.838.342 1.172 1.008 1 2-.617-.11-1.117-.444-1.5-1l-1 4a29.944 29.944 0 0 0-6.5 4l-1 36.5c.001 12.519.668 24.686 2 36.5 2.286-.095 4.286-.762 6-2 4.557-1.883 7.223-5.217 8-10 1.741-1.895 2.741-4.228 3-7a5.727 5.727 0 0 1 1-3l4-1a95.584 95.584 0 0 1-10.5 20c-3.168 2.222-6.668 3.556-10.5 4v8c-1.599-1.062-3.266-1.062-5 0v-44c-.167-12.671 0-25.338.5-38a9.457 9.457 0 0 1 1.5-2.5c5.71.057 7.71-2.443 6-7.5Z" style="opacity:1"/><path fill="#eff8ec" d="M221.5 80.5a2.427 2.427 0 0 1-2-.5c.937-.692 1.603-.525 2 .5Z" style="opacity:.024"/><path fill="#f7ecf7" d="M230.5 80.5c-.667-1.333-.667-1.333 0 0Z" style="opacity:.024"/><path fill="#f3f3ee" d="M49.5 80.5c-.667.667-.667.667 0 0Z" style="opacity:.012"/><path fill="#e3d7bc" d="m46.5 79.5 2 2c.473 1.406 1.473 2.073 3 2v4h-1c-1.202-2.556-2.869-4.89-5-7 .667 0 1-.333 1-1Z" style="opacity:.102"/><path fill="#f2e5cd" d="M228.5 82.5v1h-2c-1.667-1.333-3.333-1.333-5 0l-4 1c-.111-.617-.444-1.117-1-1.5 2.153-.1 3.819-.933 5-2.5.65-.304 1.317-.637 2-1l1 2a4.458 4.458 0 0 0 1.5-2 81.819 81.819 0 0 0 2.5 3Z" style="opacity:.247"/><path fill="#e7e3e8" d="M228.5 81.5c1.333.667 1.333.667 0 0Z" style="opacity:.078"/><path fill="#fbfbee" d="M230.5 80.5c1.025.397 1.192 1.063.5 2a2.429 2.429 0 0 1-.5-2Z" style="opacity:.012"/><path fill="#edf3eb" d="M17.5 83.5c1.333.667 1.333.667 0 0Z" style="opacity:.024"/><path fill="#8b600f" d="M40.5 79.5c1.716.129 3.383.462 5 1 2.131 2.11 3.798 4.444 5 7a72.444 72.444 0 0 1-.5 12c-.383.556-.883.889-1.5 1 3.444-9.536.778-16.536-8-21Z" style="opacity:1"/><path fill="#f6e9dc" d="M22.5 83.5c-.432 1.21-1.099 2.21-2 3-1.218-1.832-.551-2.832 2-3Z" style="opacity:.09"/><path fill="#dfac24" d="M138.5 63.5h1v41c-1-4.903-1.333-10.57-1-17-2.559-.302-4.893.032-7 1a116.746 116.746 0 0 0-21-1v-13c3.672-.317 5.338 1.35 5 5h23v-16Z" style="opacity:1"/><path fill="#d5a627" d="M268.5 63.5v24h-5c.384-2.165-.283-3.832-2-5-1.717 1.168-2.384 2.835-2 5-6.183-.414-12.516-.414-19 0l-2 18v-26l2-8v8h6v-8h1v8c3.899.466 7.899.466 12 0a68.047 68.047 0 0 0 2-13c1.729-2.227 4.062-3.227 7-3Z" style="opacity:1"/><path fill="#ebf2f1" d="M15.5 86.5c1.333.667 1.333.667 0 0Z" style="opacity:.024"/><path fill="#bb968b" d="M158.5 36.5h3v70c-1.527-.073-2.527.594-3 2-3.508 1.925-4.841 4.925-4 9-1.129-2.128-1.296-4.461-.5-7a29.964 29.964 0 0 0 6-7c.476-22.04.643-43.873.5-65.5-.916-.278-1.582-.778-2-1.5Z" style="opacity:.62"/><path fill="#dca624" d="M194.5 71.5v18c-2.058-2.496-3.224-1.83-3.5 2l-1-1c-1.775 2.544-3.608 2.544-5.5 0-.886-.825-1.219-1.825-1-3h-17v-13c1.32 1.442 2.986 2.109 5 2v3h15c-.117-1.984.55-3.65 2-5 1.507-1.239 2.674-.905 3.5 1 .122-1.937.955-3.27 2.5-4Z" style="opacity:1"/><path fill="#eaf8fe" d="M212.5 87.5c1.333.667 1.333.667 0 0Z" style="opacity:.035"/><path fill="#f4d306" d="M274.5 29.5c-2.252.416-3.752 1.749-4.5 4-.5 23.331-.667 46.664-.5 70h-1v-64a23.833 23.833 0 0 1 1-9c1.57-1.879 3.236-2.212 5-1Z" style="opacity:1"/><path fill="#dfa41d" d="M268.5 87.5v16c-.973-2.448-1.306-5.115-1-8-2.579.417-4.746-.25-6.5-2-6.548 1.938-13.382 2.605-20.5 2v-8c6.484-.414 12.817-.414 19 0-.384-2.165.283-3.832 2-5 1.717 1.168 2.384 2.835 2 5h5Z" style="opacity:1"/><path fill="#906328" d="M31.5 79.5c-8.06 4.117-11.392 10.784-10 20l-3-8c.086-.996-.248-1.83-1-2.5a81.718 81.718 0 0 0 3-2.5c.901-.79 1.568-1.79 2-3 .473-1.406 1.473-2.073 3-2 1.642-1.58 3.642-2.248 6-2Z" style="opacity:1"/><path fill="#e7a715" d="M164.5 79.5h2v8h17c-.219 1.175.114 2.175 1 3 1.892 2.544 3.725 2.544 5.5 0l1 1c.276-3.83 1.442-4.496 3.5-2v6c-2.894.458-5.394-.209-7.5-2-.71 1.473-1.876 2.14-3.5 2v3h-8v-3h-4a4.934 4.934 0 0 0-.5-3c-.71 1.473-1.876 2.14-3.5 2 .698 4.862 3.364 8.028 8 9.5a34.251 34.251 0 0 0-8 1.5c-1.503 1.922-3.503 3.088-6 3.5-.55 2.158-1.55 2.658-3 1.5v-1a23.498 23.498 0 0 0 5.5-4c.5-8.66.666-17.327.5-26Z" style="opacity:1"/><path fill="#dfa609" d="M226.5 83.5a204.323 204.323 0 0 1 1 28 332.95 332.95 0 0 1-1.5-26 269.32 269.32 0 0 0-2 26 182.473 182.473 0 0 0-1.5-19l-3 3a3.647 3.647 0 0 0 1 1.5 25.742 25.742 0 0 0-7 6c.952 1.3.952 2.467 0 3.5a4.457 4.457 0 0 1-1.5-2c-1.435 1.711-3.269 2.878-5.5 3.5l1 1-5 1c1.211 1.113 1.211 2.28 0 3.5 7.892 1.314 15.725 1.314 23.5 0 .464.594.631 1.261.5 2h-26v-8c3.832-.444 7.332-1.778 10.5-4a95.584 95.584 0 0 0 10.5-20c1.667-1.333 3.333-1.333 5 0Z" style="opacity:1"/><path fill="#d99f08" d="M40.5 79.5c8.778 4.464 11.444 11.464 8 21a254.406 254.406 0 0 1-7 6.5 51.239 51.239 0 0 0 4 2.5v7a27.43 27.43 0 0 1-11-2c-1.35-1.15-1.184-1.817.5-2a24.118 24.118 0 0 0 8.5 2 6.846 6.846 0 0 1 1-4c-1.545-.952-3.212-1.285-5-1-.285-1.788.048-3.455 1-5a17.61 17.61 0 0 0 6.5-5c.667-1.333.667-2.667 0-4-.739 1.074-1.739 1.74-3 2-3.15-1.476-6.483-2.142-10-2-4.42-.148-7.92.518-10.5 2-.273 1.951.393 3.451 2 4.5-.916.278-1.582.778-2 1.5-.845-1.171-1.511-2.505-2-4-1.392-9.216 1.94-15.883 10-20 2.896-1.275 5.896-1.275 9 0Z" style="opacity:1"/><path fill="#e9a916" d="M108.5 79.5h2v8c7.088-.296 14.088.038 21 1 .896 2.627.73 5.294-.5 8-2.351-2.543-3.517-1.876-3.5 2h-8c.262-1.478-.071-2.811-1-4a3.646 3.646 0 0 0-1.5 1c-1.088-3.493-2.255-3.66-3.5-.5a4.932 4.932 0 0 1-3 .5v11c-1.342 1.293-3.009 2.126-5 2.5-.55 2.158-1.55 2.658-3 1.5a25.96 25.96 0 0 1 5.5-5c.5-8.66.666-17.327.5-26Z" style="opacity:1"/><path fill="#cdaf96" d="M216.5 87.5c-.259 2.772-1.259 5.105-3 7 .052-2.846 1.052-5.18 3-7Z" style="opacity:1"/><path fill="#e2a720" d="M84.5 79.5v8a136.05 136.05 0 0 1-10 4.5c-1.688 3.015-4.355 4.182-8 3.5-3.59.362-6.09-.972-7.5-4a10.253 10.253 0 0 1-1.5 4 16.869 16.869 0 0 1-1-8c1.869-2.135 2.536-4.802 2-8h5c-.278 1.846.389 3.18 2 4a42.814 42.814 0 0 1 8.5 0c2.287-.974 4.287-2.307 6-4 .807 3.949 1.307 3.949 1.5 0h3Z" style="opacity:1"/><path fill="#b17f8b" d="M18.5 91.5c.268 1.599-.066 2.932-1 4-.438.065-.772-.101-1-.5a19.606 19.606 0 0 1 2-3.5Z" style="opacity:1"/><path fill="#e8a60a" d="M84.5 79.5h2a97.131 97.131 0 0 1-2 24 28.936 28.936 0 0 0-3.5 5c-1.129 1.641-2.629 2.641-4.5 3 .695-2.478 2.195-4.478 4.5-6 .715-8.05-1.618-9.716-7-5a4.932 4.932 0 0 0-.5 3h-10c.188-1.603-.312-2.937-1.5-4a32.52 32.52 0 0 1-3 7c-5.054.89-7.22 3.89-6.5 9 7.57.522 14.903-.478 22-3-.558 1.29-1.558 2.123-3 2.5a59.912 59.912 0 0 1-21 2.5v-2a18.437 18.437 0 0 1 .5-6c2.148-1.477 3.482-3.477 4-6 .5-5.323.666-10.656.5-16h1a16.869 16.869 0 0 0 1 8 10.253 10.253 0 0 0 1.5-4c1.41 3.028 3.91 4.362 7.5 4 3.645.682 6.312-.485 8-3.5a136.05 136.05 0 0 0 10-4.5v-8Z" style="opacity:1"/><path fill="#996f06" d="m144.5 29.5-3 4a1260.362 1260.362 0 0 0-1 71h-1v-41c-.167-10.672 0-21.339.5-32a39.098 39.098 0 0 1 4.5-2Z" style="opacity:1"/><path fill="#895e09" d="M226.5 83.5h2c.901.79 1.568 1.79 2 3-.617.11-1.117.444-1.5 1a284.052 284.052 0 0 1-1.5 24c.305-9.417-.028-18.75-1-28Z" style="opacity:1"/><path fill="#95615d" d="M230.5 87.5c.99 5.81 1.323 11.81 1 18-.172.992.162 1.658 1 2-.06.543-.393.876-1 1a111.15 111.15 0 0 1-1-21Z" style="opacity:.831"/><path fill="#eaa60b" d="M139.5 104.5h1v3c5.54.028 7.207 2.528 5 7.5-13.329.5-26.663.667-40 .5a538.89 538.89 0 0 1 33-1.5c-2.062-3.795-3.228-7.962-3.5-12.5a358.531 358.531 0 0 0-24.5 5v-11a4.932 4.932 0 0 0 3-.5c1.245-3.16 2.412-2.993 3.5.5.414-.457.914-.79 1.5-1 .929 1.189 1.262 2.522 1 4h8c-.017-3.876 1.149-4.543 3.5-2 1.23-2.706 1.396-5.373.5-8 2.107-.968 4.441-1.302 7-1-.333 6.43 0 12.097 1 17Z" style="opacity:1"/><path fill="#eefafe" d="M15.5 97.5c1.333.667 1.333.667 0 0Z" style="opacity:.012"/><path fill="#86560d" d="M49.5 22.5c-3.595 5.225-2.261 8.058 4 8.5a9.468 9.468 0 0 1 1.5 2.5c.5 17.997.667 35.997.5 54 .166 5.344 0 10.677-.5 16-.518 2.523-1.852 4.523-4 6a18.437 18.437 0 0 0-.5 6c-1.059-1.1-1.892-2.434-2.5-4a38.715 38.715 0 0 1-2.5 5v-7c.617.111 1.117.444 1.5 1 1.333-2.667 3.333-4.667 6-6 .83-23.837.663-47.504-.5-71-4.32-.823-6.82-3.49-7.5-8-.383.556-.883.89-1.5 1-.073-1.527.594-2.527 2-3l4-1Z" style="opacity:1"/><path fill="#743506" d="m18.5 91.5 3 8c.489 1.495 1.155 2.829 2 4a21.97 21.97 0 0 0 5.5 8 24.259 24.259 0 0 0 5.5 3 27.43 27.43 0 0 0 11 2 38.715 38.715 0 0 0 2.5-5c.608 1.566 1.441 2.9 2.5 4v2c-.958-.453-1.792-1.119-2.5-2a4.932 4.932 0 0 0-.5 3 32.462 32.462 0 0 1-8-.5 152.651 152.651 0 0 0-16-5.5 31.12 31.12 0 0 1 2-2 61.897 61.897 0 0 1-7-10h-1v-5c.934-1.068 1.268-2.401 1-4Z" style="opacity:1"/><path fill="#e8a80e" d="M240.5 87.5v8c7.118.605 13.952-.062 20.5-2 1.754 1.75 3.921 2.417 6.5 2-.306 2.885.027 5.552 1 8h1l2 2c0 1.333.667 2 2 2 3.061 1.95 3.728 4.617 2 8h-40a6720.985 6720.985 0 0 1 37.5-2c1.257-.35 1.591-1.017 1-2-1.816-.829-3.649-1.663-5.5-2.5l-2-5-1-.5c-1.238 3.811-1.904 3.811-2 0a64.873 64.873 0 0 0-16 1c-3.608 2.408-7.608 3.908-12 4.5-1.281 1.409-2.281 2.909-3 4.5a43.836 43.836 0 0 0-1-2c1.357-1.686 2.69-3.352 4-5h1l2-1 2-18Z" style="opacity:1"/><path fill="#cda2ac" d="M17.5 100.5h1v4c-.81-.969-1.81-1.802-3-2.5.544-.717 1.21-1.217 2-1.5Z" style="opacity:.765"/><path fill="#ea9f03" d="M105.5 115.5a5.727 5.727 0 0 1-3-1c-1.186-1.461-1.186-2.795 0-4 1.45 1.158 2.45.658 3-1.5 1.991-.374 3.658-1.207 5-2.5a358.531 358.531 0 0 1 24.5-5c.272 4.538 1.438 8.705 3.5 12.5a538.89 538.89 0 0 0-33 1.5Z" style="opacity:1"/><path fill="#6a2804" d="M52.5 33.5a842.573 842.573 0 0 1 .5 71c-2.667 1.333-4.667 3.333-6 6-.383-.556-.883-.889-1.5-1a51.239 51.239 0 0 1-4-2.5 254.406 254.406 0 0 0 7-6.5c.617-.111 1.117-.444 1.5-1 .499-3.986.666-7.986.5-12h1a729.596 729.596 0 0 0 1-54Z" style="opacity:1"/><path fill="#ebe2c1" d="M213.5 94.5c-.777 4.783-3.443 8.117-8 10 2.792-3.841 5.458-7.174 8-10Z" style="opacity:.282"/><path fill="#e6a003" d="M34.5 114.5a24.259 24.259 0 0 1-5.5-3 21.97 21.97 0 0 1-5.5-8c.418-.722 1.084-1.222 2-1.5-1.607-1.049-2.273-2.549-2-4.5 2.58-1.482 6.08-2.148 10.5-2 3.517-.142 6.85.524 10 2 1.261-.26 2.261-.926 3-2 .667 1.333.667 2.667 0 4a17.61 17.61 0 0 1-6.5 5c-.952 1.545-1.285 3.212-1 5 1.788-.285 3.455.048 5 1a6.846 6.846 0 0 0-1 4 24.118 24.118 0 0 1-8.5-2c-1.684.183-1.85.85-.5 2Z" style="opacity:1"/><path fill="#eaa002" d="M76.5 111.5c-.342.838-1.008 1.172-2 1-7.097 2.522-14.43 3.522-22 3-.72-5.11 1.446-8.11 6.5-9a32.52 32.52 0 0 0 3-7c1.188 1.063 1.688 2.397 1.5 4h10a4.932 4.932 0 0 1 .5-3c5.382-4.716 7.715-3.05 7 5-2.305 1.522-3.805 3.522-4.5 6Z" style="opacity:1"/><path fill="#faffed" d="M154.5 103.5c1.333.667 1.333.667 0 0Z" style="opacity:.012"/><path fill="#eaa106" d="M194.5 95.5a128.507 128.507 0 0 1-.5 16 9.454 9.454 0 0 1-1.5 2.5c-10.175.17-20.175.67-30 1.5h-4c-1.22-1.784-1.22-3.45 0-5 1.45 1.158 2.45.658 3-1.5 2.497-.412 4.497-1.578 6-3.5a34.251 34.251 0 0 1 8-1.5c-4.636-1.472-7.302-4.638-8-9.5 1.624.14 2.79-.527 3.5-2 .483.948.649 1.948.5 3h4v3h8v-3c1.624.14 2.79-.527 3.5-2 2.106 1.791 4.606 2.458 7.5 2Z" style="opacity:1"/><path fill="#e99f04" d="M235.5 115.5h-3v-2c.719-1.591 1.719-3.091 3-4.5 4.392-.592 8.392-2.092 12-4.5a64.873 64.873 0 0 1 16-1c.096 3.811.762 3.811 2 0l1 .5 2 5c1.851.837 3.684 1.671 5.5 2.5.591.983.257 1.65-1 2a6720.985 6720.985 0 0 0-37.5 2Z" style="opacity:1"/><path fill="#f3eace" d="M273.5 103.5c1.879-.107 2.212.393 1 1.5.753 1.487 1.586 1.654 2.5.5 1.085 1.236 1.918 2.569 2.5 4h-1c-1.32-1.442-2.986-2.108-5-2v-4Z" style="opacity:.078"/><path fill="#e6cac8" d="M89.5 101.5c.606 2.536-.06 4.87-2 7 .222-2.567.888-4.901 2-7Z" style="opacity:.067"/><path fill="#f5f4d7" d="M199.5 103.5c1.975.378 3.975.711 6 1-1.714 1.238-3.714 1.905-6 2v-3Z" style="opacity:.133"/><path fill="#f4f2e8" d="M150.5 105.5c1.333.667 1.333.667 0 0Z" style="opacity:.043"/><path fill="#ecf1f1" d="M155.5 105.5c1.333.667 1.333.667 0 0Z" style="opacity:.024"/><path fill="#e9f3f1" d="M148.5 106.5c1.333.667 1.333.667 0 0Z" style="opacity:.035"/><path fill="#e5d9bc" d="M143.5 104.5c.897 1.098 1.73 1.098 2.5 0 .377 1.442 1.21 2.442 2.5 3 .61.891.943 1.891 1 3a18.33 18.33 0 0 0-6-4v-2Z" style="opacity:.361"/><path fill="#f3f1e7" d="M150.5 107.5c1.333.667 1.333.667 0 0Z" style="opacity:.043"/><path fill="#c9a0a2" d="M19.5 107.5c.901.79 1.568 1.79 2 3-1.548-.321-2.215-1.321-2-3Z" style="opacity:.349"/><path fill="#601810" d="M18.5 100.5a61.897 61.897 0 0 0 7 10 31.12 31.12 0 0 0-2 2l-2-1v-1c-.432-1.21-1.099-2.21-2-3-.904-.709-1.237-1.709-1-3v-4Z" style="opacity:1"/><path fill="#fcefed" d="M15.5 110.5c1.333.667 1.333.667 0 0Z" style="opacity:.012"/><path fill="#eefffd" d="M17.5 110.5c1.333.667 1.333.667 0 0Z" style="opacity:.012"/><path fill="#d3b0ac" d="M87.5 108.5c.073 1.527-.594 2.527-2 3-.073-1.527.594-2.527 2-3Z" style="opacity:.325"/><path fill="#7a4406" d="M273.5 107.5c2.014-.108 3.68.558 5 2 .469 2.893-.531 4.893-3 6 1.728-3.383 1.061-6.05-2-8Z" style="opacity:1"/><path fill="#dec6c3" d="m21.5 111.5 2 1v2c-1.406-.473-2.073-1.473-2-3Z" style="opacity:.102"/><path fill="#eba106" d="M227.5 111.5v4h-1a2.428 2.428 0 0 0-.5-2c-7.775 1.314-15.608 1.314-23.5 0 1.211-1.22 1.211-2.387 0-3.5l5-1-1-1c2.231-.622 4.065-1.789 5.5-3.5a4.457 4.457 0 0 0 1.5 2c.952-1.033.952-2.2 0-3.5a25.742 25.742 0 0 1 7-6 3.647 3.647 0 0 1-1-1.5l3-3a182.473 182.473 0 0 1 1.5 19 269.32 269.32 0 0 1 2-26c.17 8.843.67 17.51 1.5 26Z" style="opacity:1"/><path fill="#793b06" d="M230.5 86.5v1a111.15 111.15 0 0 0 1 21c.607-.124.94-.457 1-1a5.727 5.727 0 0 1 3-1c-1.31 1.648-2.643 3.314-4 5 .363.683.696 1.35 1 2v1a20.69 20.69 0 0 0-5 1v-4a284.052 284.052 0 0 0 1.5-24c.383-.556.883-.89 1.5-1Z" style="opacity:1"/><path fill="#f5f8e9" d="M150.5 113.5c1.122 1.788 1.289 3.788.5 6-.383-.556-.883-.889-1.5-1 .801-1.542 1.134-3.208 1-5Z" style="opacity:.043"/><path fill="#f3c006" d="M194.5 71.5h1v44h-33c9.825-.83 19.825-1.33 30-1.5a9.454 9.454 0 0 0 1.5-2.5c.499-5.323.666-10.656.5-16v-24Z" style="opacity:1"/><path fill="#c9aba2" d="M24.5 116.5v-1c1.904.238 3.238 1.238 4 3-1.562-.233-2.895-.9-4-2Z" style="opacity:.788"/><path fill="#edf4f9" d="M95.5 114.5c1.025.397 1.192 1.063.5 2a2.427 2.427 0 0 1-.5-2Z" style="opacity:.012"/><path fill="#e6ece4" d="M24.5 116.5c-.667.667-.667.667 0 0Z" style="opacity:.067"/><path fill="#e4e9eb" d="M85.5 116.5c1.333.667 1.333.667 0 0Z" style="opacity:.067"/><path fill="#834e02" d="M84.5 103.5a17.758 17.758 0 0 1-1.5 7c-7.157 5.658-15.324 8.658-24.5 9-2.986.118-5.652-.548-8-2a59.912 59.912 0 0 0 21-2.5c1.442-.377 2.442-1.21 3-2.5.992.172 1.658-.162 2-1 1.871-.359 3.371-1.359 4.5-3a28.936 28.936 0 0 1 3.5-5Z" style="opacity:1"/><path fill="#631c11" d="M93.5 23.5h2c-.172.992.162 1.658 1 2v5c-.086.996.248 1.83 1 2.5-1.391 2.228-3.391 3.394-6 3.5-1.989 20.974-2.656 42.307-2 64v1c-1.112 2.099-1.778 4.433-2 7-1.406.473-2.073 1.473-2 3a26.512 26.512 0 0 0-3.5 6l-1-1c-.708.881-1.542 1.547-2.5 2-1.653.16-2.986.826-4 2-1.903.296-3.57.963-5 2-7.778 2.279-15.778 2.612-24 1h-3c-3.13-.2-6.13-.866-9-2 0-.667-.333-1-1-1h-1c-.473-1.406-1.473-2.073-3-2-.762-1.762-2.096-2.762-4-3 0-.667-.333-1-1-1v-2a152.651 152.651 0 0 1 16 5.5c2.646.497 5.313.664 8 .5a4.932 4.932 0 0 1 .5-3c.708.881 1.542 1.547 2.5 2 2.348 1.452 5.014 2.118 8 2 9.176-.342 17.343-3.342 24.5-9a17.758 17.758 0 0 0 1.5-7c1.507-1.681 2.507-3.681 3-6a2034.132 2034.132 0 0 0 1.5-64c.717-.544 1.217-1.21 1.5-2v-2l2-1c.951-1.419 1.284-3.085 1-5Z" style="opacity:1"/><path fill="#effffe" d="M282.5 118.5c1.333.667 1.333.667 0 0Z" style="opacity:.012"/><path fill="#dececf" d="M28.5 118.5c1.527-.073 2.527.594 3 2v1a6.544 6.544 0 0 1-3-3Z" style="opacity:.133"/><path fill="#af908e" d="M78.5 118.5c-.787 1.604-2.12 2.271-4 2 1.014-1.174 2.347-1.84 4-2Z" style="opacity:.471"/><path fill="#e1c8c0" d="M98.5 112.5c-.576 3.612.424 6.612 3 9-1.517-.011-2.684-.677-3.5-2-.796-2.539-.63-4.872.5-7Z" style="opacity:.055"/><path fill="#ddbebb" d="M154.5 118.5a6.547 6.547 0 0 1 3 3c-2 0-3-1-3-3Z" style="opacity:.055"/><path fill="#6a2218" d="M158.5 108.5v2c-1.22 1.55-1.22 3.216 0 5 .111.617.444 1.117 1 1.5 11.667.667 23.333.667 35 0 .556-.383.889-.883 1-1.5 1.734-1.062 3.401-1.062 5 0 .763.768 1.763 1.268 3 1.5a121.19 121.19 0 0 0 22 0c.916-.278 1.582-.778 2-1.5a20.69 20.69 0 0 1 5-1v1c6.131 1.33 12.631 1.997 19.5 2l19.5-.5c1.237-.232 2.237-.732 3-1.5h1c2.469-1.107 3.469-3.107 3-6h1c.992 3.279 1.159 6.612.5 10-.383.556-.883.889-1.5 1-1.903.296-3.57.963-5 2h-40c-1.786-2.422-3.452-2.422-5 0-22.13.344-44.463.677-67 1l-4-2a6.547 6.547 0 0 0-3-3v-1c-.841-4.075.492-7.075 4-9Z" style="opacity:1"/><path fill="#885501" d="M232.5 115.5h42c-.763.768-1.763 1.268-3 1.5l-19.5.5c-6.869-.003-13.369-.67-19.5-2Z" style="opacity:1"/><path fill="#895401" d="M200.5 115.5h27c-.418.722-1.084 1.222-2 1.5a121.19 121.19 0 0 1-22 0c-1.237-.232-2.237-.732-3-1.5Z" style="opacity:1"/><path fill="#875401" d="M158.5 115.5h37c-.111.617-.444 1.117-1 1.5a306.347 306.347 0 0 1-35 0c-.556-.383-.889-.883-1-1.5Z" style="opacity:1"/><path fill="#e5f0ea" d="M32.5 120.5c.667 0 1 .333 1 1-1.048 2.433-1.714 2.433-2 0 .667 0 1-.333 1-1Z" style="opacity:.024"/><path fill="#d8beb9" d="M74.5 120.5c-1.285 2.159-2.951 2.826-5 2 1.43-1.037 3.097-1.704 5-2Z" style="opacity:.012"/><path fill="#edf9f2" d="M97.5 121.5c1.333.667 1.333.667 0 0Z" style="opacity:.012"/><path fill="#6e261f" d="M100.5 110.5a12.93 12.93 0 0 0 .5 5c.383-.556.883-.889 1.5-1-.086.996.248 1.829 1 2.5 13.506.827 26.84.66 40-.5 3.3-.529 5.3-2.529 6-6 .904.709 1.237 1.709 1 3 .134 1.792-.199 3.458-1 5 .172.992-.162 1.658-1 2-1.903.296-3.57.963-5 2a382.763 382.763 0 0 1-38 1l-4-2c-2.576-2.388-3.576-5.388-3-9v-1l2-1Z" style="opacity:1"/><path fill="#7a4800" d="M102.5 114.5c.891.61 1.891.943 3 1a361.608 361.608 0 0 0 38 1c-13.16 1.16-26.494 1.327-40 .5-.752-.671-1.086-1.504-1-2.5Z" style="opacity:1"/><path fill="#dcc4bf" d="M148.5 120.5c-1.135 1.713-2.802 2.38-5 2 1.43-1.037 3.097-1.704 5-2Z" style="opacity:.035"/><path fill="#ecfdfb" d="M150.5 121.5c1.333.667 1.333.667 0 0Z" style="opacity:.024"/><path fill="#ecfaf2" d="M153.5 121.5c1.333.667 1.333.667 0 0Z" style="opacity:.024"/><path fill="#dad0c6" d="M233.5 122.5h-5c1.548-2.422 3.214-2.422 5 0Z" style="opacity:.035"/><path fill="#e1c6c3" d="M278.5 120.5c-1.135 1.713-2.802 2.38-5 2 1.43-1.037 3.097-1.704 5-2Z" style="opacity:.012"/><path fill="#edece1" d="M237.5 122.5h35c-11.402.676-22.902 1.343-34.5 2a2.428 2.428 0 0 1-.5-2Z" style="opacity:.09"/><path fill="#e6f7ed" d="M105.5 123.5c-.397 1.025-1.063 1.192-2 .5a2.428 2.428 0 0 1 2-.5ZM161.5 123.5c-.397 1.025-1.063 1.192-2 .5a2.428 2.428 0 0 1 2-.5Z" style="opacity:.035"/><path fill="#fdedf6" d="M230.5 123.5c1.333.667 1.333.667 0 0Z" style="opacity:.024"/><path fill="#e0f2eb" d="M276.5 124.5c-.667-1.333-.667-1.333 0 0Z" style="opacity:.09"/><path fill="#e1f4f3" d="M39.5 124.5c1.333.667 1.333.667 0 0Z" style="opacity:.078"/><path fill="#ece4e6" d="M42.5 123.5h3c-1.543 2.057-2.543 2.057-3 0Z" style="opacity:.012"/><path fill="#effef9" d="M138.5 125.5c1.446-1.113 3.113-1.28 5-.5a12.93 12.93 0 0 1-5 .5Z" style="opacity:.012"/><path fill="#ededf2" d="M197.5 123.5c1.025.397 1.192 1.063.5 2a2.428 2.428 0 0 1-.5-2Z" style="opacity:.055"/><path fill="#eefef8" d="M199.5 124.5c1.333.667 1.333.667 0 0Z" style="opacity:.012"/><path fill="#eef9f7" d="M276.5 124.5c1.333.667 1.333.667 0 0Z" style="opacity:.012"/><path fill="#f7edf2" d="M37.5 125.5c1.333.667 1.333.667 0 0Z" style="opacity:.024"/><path fill="#ecf9ee" d="M55.5 125.5c1.333.667 1.333.667 0 0Z" style="opacity:.024"/><path fill="#eefaf4" d="M63.5 126.5c.75-1.073 1.75-1.24 3-.5a4.934 4.934 0 0 1-3 .5Z" style="opacity:.012"/><path fill="#faeff2" d="M110.5 125.5c1.333.667 1.333.667 0 0Z" style="opacity:.012"/><path fill="#eef3f3" d="M151.5 125.5c1.333.667 1.333.667 0 0Z" style="opacity:.012"/><path fill="#faeff2" d="M166.5 125.5c1.333.667 1.333.667 0 0Z" style="opacity:.012"/><path fill="#fbedf3" d="M223.5 125.5c1.333.667 1.333.667 0 0Z" style="opacity:.024"/><path fill="#ecf1f3" d="M271.5 125.5c1.333.667 1.333.667 0 0Z" style="opacity:.024"/><path fill="#eaf3ee" d="M193.5 127.5c.397-1.025 1.063-1.192 2-.5a2.428 2.428 0 0 1-2 .5Z" style="opacity:.035"/><path fill="#eafffb" d="M231.5 127.5c.397-1.025 1.063-1.192 2-.5a2.428 2.428 0 0 1-2 .5Z" style="opacity:.035"/><path fill="#fbedf3" d="M275.5 126.5c1.333.667 1.333.667 0 0Z" style="opacity:.024"/><path fill="#e8f4ef" d="M278.5 126.5c1.333.667 1.333.667 0 0Z" style="opacity:.043"/></svg>